<svg xmlns="http://www.w3.org/2000/svg" viewBox="0 0 800 1100"><rect width="800" height="1100" fill="#2B3340"/><circle cx="0" cy="1012" r="31" fill="#252c38" opacity="0.13"/><circle cx="583" cy="585" r="33" fill="#252c38" opacity="0.27"/><circle cx="604" cy="597" r="55" fill="#252c38" opacity="0.24"/><circle cx="653" cy="266" r="36" fill="#252c38" opacity="0.26"/><circle cx="558" cy="59" r="55" fill="#252c38" opacity="0.20"/><circle cx="737" cy="888" r="21" fill="#252c38" opacity="0.21"/><circle cx="738" cy="757" r="52" fill="#252c38" opacity="0.22"/><circle cx="729" cy="999" r="36" fill="#252c38" opacity="0.16"/><circle cx="669" cy="365" r="23" fill="#252c38" opacity="0.15"/><circle cx="342" cy="324" r="70" fill="#252c38" opacity="0.22"/><circle cx="583" cy="965" r="17" fill="#252c38" opacity="0.15"/><circle cx="448" cy="559" r="39" fill="#252c38" opacity="0.13"/><circle cx="727" cy="60" r="35" fill="#252c38" opacity="0.17"/><circle cx="531" cy="1016" r="44" fill="#252c38" opacity="0.12"/><circle cx="324" cy="311" r="35" fill="#252c38" opacity="0.19"/><circle cx="266" cy="584" r="50" fill="#252c38" opacity="0.14"/><circle cx="725" cy="503" r="65" fill="#252c38" opacity="0.24"/><circle cx="507" cy="567" r="44" fill="#252c38" opacity="0.25"/><circle cx="751" cy="436" r="56" fill="#252c38" opacity="0.14"/><circle cx="469" cy="385" r="33" fill="#252c38" opacity="0.18"/><circle cx="635" cy="965" r="20" fill="#252c38" opacity="0.28"/><circle cx="62" cy="447" r="23" fill="#252c38" opacity="0.10"/><circle cx="796" cy="242" r="51" fill="#252c38" opacity="0.12"/><circle cx="365" cy="652" r="22" fill="#252c38" opacity="0.31"/><circle cx="707" cy="979" r="67" fill="#252c38" opacity="0.31"/><circle cx="608" cy="302" r="14" fill="#252c38" opacity="0.14"/><g transform="rotate(-2 240 250)"><path d="M130 120 h220 v200 l-110 60 l-110 -60 Z" fill="#6E2424" stroke="#0006" stroke-width="3"/><path d="M144 134 h192 v178 l-96 52 l-96 -52 Z" fill="none" stroke="#F4E8C8" stroke-width="3" opacity=".6"/><text x="240" y="240" font-family="Georgia" font-weight="bold" font-size="34" text-anchor="middle" fill="#F4E8C8">WINS</text><circle cx="148" cy="132" r="6" fill="#cfd4dc"/><circle cx="332" cy="132" r="6" fill="#cfd4dc"/></g><g transform="rotate(1.5 530 230)"><path d="M420 100 h220 v200 l-110 60 l-110 -60 Z" fill="#2F5243" stroke="#0006" stroke-width="3"/><path d="M434 114 h192 v178 l-96 52 l-96 -52 Z" fill="none" stroke="#F4E8C8" stroke-width="3" opacity=".6"/><text x="530" y="220" font-family="Georgia" font-weight="bold" font-size="34" text-anchor="middle" fill="#F4E8C8">GO TEAM</text><circle cx="438" cy="112" r="6" fill="#cfd4dc"/><circle cx="622" cy="112" r="6" fill="#cfd4dc"/></g><g transform="rotate(-1 350 560)"><path d="M240 430 h220 v200 l-110 60 l-110 -60 Z" fill="#33507A" stroke="#0006" stroke-width="3"/><path d="M254 444 h192 v178 l-96 52 l-96 -52 Z" fill="none" stroke="#F4E8C8" stroke-width="3" opacity=".6"/><text x="350" y="550" font-family="Georgia" font-weight="bold" font-size="34" text-anchor="middle" fill="#F4E8C8">VARSITY</text><circle cx="258" cy="442" r="6" fill="#cfd4dc"/><circle cx="442" cy="442" r="6" fill="#cfd4dc"/></g><g transform="rotate(2 630 590)"><path d="M520 460 h220 v200 l-110 60 l-110 -60 Z" fill="#7A5818" stroke="#0006" stroke-width="3"/><path d="M534 474 h192 v178 l-96 52 l-96 -52 Z" fill="none" stroke="#F4E8C8" stroke-width="3" opacity=".6"/><text x="630" y="580" font-family="Georgia" font-weight="bold" font-size="34" text-anchor="middle" fill="#F4E8C8">CHAMPS</text><circle cx="538" cy="472" r="6" fill="#cfd4dc"/><circle cx="722" cy="472" r="6" fill="#cfd4dc"/></g><g transform="rotate(1 260 890)"><path d="M150 760 h220 v200 l-110 60 l-110 -60 Z" fill="#4D3A66" stroke="#0006" stroke-width="3"/><path d="M164 774 h192 v178 l-96 52 l-96 -52 Z" fill="none" stroke="#F4E8C8" stroke-width="3" opacity=".6"/><text x="260" y="880" font-family="Georgia" font-weight="bold" font-size="34" text-anchor="middle" fill="#F4E8C8">HOME</text><circle cx="168" cy="772" r="6" fill="#cfd4dc"/><circle cx="352" cy="772" r="6" fill="#cfd4dc"/></g><g transform="rotate(-2 570 920)"><path d="M460 790 h220 v200 l-110 60 l-110 -60 Z" fill="#6E2424" stroke="#0006" stroke-width="3"/><path d="M474 804 h192 v178 l-96 52 l-96 -52 Z" fill="none" stroke="#F4E8C8" stroke-width="3" opacity=".6"/><text x="570" y="910" font-family="Georgia" font-weight="bold" font-size="34" text-anchor="middle" fill="#F4E8C8">PRIDE</text><circle cx="478" cy="802" r="6" fill="#cfd4dc"/><circle cx="662" cy="802" r="6" fill="#cfd4dc"/></g></svg>
