<svg xmlns="http://www.w3.org/2000/svg" viewBox="0 0 800 1100"><rect width="800" height="1100" fill="#2e4038"/><circle cx="0" cy="1012" r="31" fill="#28382f" opacity="0.13"/><circle cx="583" cy="585" r="33" fill="#28382f" opacity="0.27"/><circle cx="604" cy="597" r="55" fill="#28382f" opacity="0.24"/><circle cx="653" cy="266" r="36" fill="#28382f" opacity="0.26"/><circle cx="558" cy="59" r="55" fill="#28382f" opacity="0.20"/><circle cx="737" cy="888" r="21" fill="#28382f" opacity="0.21"/><circle cx="738" cy="757" r="52" fill="#28382f" opacity="0.22"/><circle cx="729" cy="999" r="36" fill="#28382f" opacity="0.16"/><circle cx="669" cy="365" r="23" fill="#28382f" opacity="0.15"/><circle cx="342" cy="324" r="70" fill="#28382f" opacity="0.22"/><circle cx="583" cy="965" r="17" fill="#28382f" opacity="0.15"/><circle cx="448" cy="559" r="39" fill="#28382f" opacity="0.13"/><circle cx="727" cy="60" r="35" fill="#28382f" opacity="0.17"/><circle cx="531" cy="1016" r="44" fill="#28382f" opacity="0.12"/><circle cx="324" cy="311" r="35" fill="#28382f" opacity="0.19"/><circle cx="266" cy="584" r="50" fill="#28382f" opacity="0.14"/><circle cx="725" cy="503" r="65" fill="#28382f" opacity="0.24"/><circle cx="507" cy="567" r="44" fill="#28382f" opacity="0.25"/><circle cx="751" cy="436" r="56" fill="#28382f" opacity="0.14"/><circle cx="469" cy="385" r="33" fill="#28382f" opacity="0.18"/><circle cx="635" cy="965" r="20" fill="#28382f" opacity="0.28"/><circle cx="62" cy="447" r="23" fill="#28382f" opacity="0.10"/><circle cx="796" cy="242" r="51" fill="#28382f" opacity="0.12"/><circle cx="365" cy="652" r="22" fill="#28382f" opacity="0.31"/><circle cx="707" cy="979" r="67" fill="#28382f" opacity="0.31"/><circle cx="608" cy="302" r="14" fill="#28382f" opacity="0.14"/><g stroke="#e8e6dc" stroke-width="3" fill="none" opacity=".5" stroke-linecap="round"><path d="M80 120 q40 -30 80 0"/><circle cx="640" cy="180" r="28"/><path d="M620 980 l60 0 m-30 -30 l0 60"/><path d="M120 900 q30 30 60 0 q30 -30 60 0"/><path d="M600 540 l50 -40 m0 40 l-50 -40"/></g></svg>
