<svg xmlns="http://www.w3.org/2000/svg" viewBox="0 0 800 1100"><defs><linearGradient id="chrm" x1="0" y1="0" x2="0" y2="1"><stop offset="0" stop-color="#DCE6F2"/><stop offset=".3" stop-color="#9AA8C0"/><stop offset=".5" stop-color="#F2F6FB"/><stop offset=".72" stop-color="#8694AE"/><stop offset="1" stop-color="#C4CEE0"/></linearGradient></defs><rect width="800" height="1100" fill="url(#chrm)"/><path d="M0 300 q400 -80 800 30 l0 60 q-400 -100 -800 -20 Z" fill="#B7E6F0" opacity=".5"/><path d="M0 540 q400 60 800 -40 l0 40 q-400 90 -800 30 Z" fill="#fff" opacity=".75"/><path d="M0 820 q400 -70 800 30 l0 50 q-400 -90 -800 -20 Z" fill="#F0BBDD" opacity=".45"/><path d="M0 1020 q400 50 800 -30 l0 110 l-800 0 Z" fill="#7E8CA4" opacity=".4"/><path d="M20 141.27814496554348 L22.944371006891306 153.05562899310868 L34.721855034456524 156 L22.944371006891306 158.94437100689132 L20 170.72185503445652 L17.055628993108694 158.94437100689132 L5.278144965543479 156 L17.055628993108694 153.05562899310868 Z" fill="#fff" opacity="0.51"/><path d="M673 661.9128368296255 L676.4174326340749 675.5825673659251 L690.0871631703745 679 L676.4174326340749 682.4174326340749 L673 696.0871631703745 L669.5825673659251 682.4174326340749 L655.9128368296255 679 L669.5825673659251 675.5825673659251 Z" fill="#fff" opacity="0.94"/><path d="M422 1038.4073770830441 L429.11852458339115 1066.8814754166087 L457.5926229169558 1074 L429.11852458339115 1081.1185245833913 L422 1109.5926229169559 L414.88147541660885 1081.1185245833913 L386.4073770830442 1074 L414.88147541660885 1066.8814754166087 Z" fill="#F0BBDD" opacity="0.55"/><circle cx="422" cy="1074" r="3.5" fill="#fff"/><path d="M618 713.5882312052828 L623.0823537589434 733.9176462410566 L643.4117687947172 739 L623.0823537589434 744.0823537589434 L618 764.4117687947172 L612.9176462410566 744.0823537589434 L592.5882312052828 739 L612.9176462410566 733.9176462410566 Z" fill="#fff" opacity="0.57"/><circle cx="618" cy="739" r="3.5" fill="#fff"/><path d="M131 934.868761000628 L134.8262477998744 950.1737522001256 L150.131238999372 954 L134.8262477998744 957.8262477998744 L131 973.131238999372 L127.1737522001256 957.8262477998744 L111.86876100062801 954 L127.1737522001256 950.1737522001256 Z" fill="#F0BBDD" opacity="0.57"/><path d="M455 86.85423747769289 L458.82915250446143 102.17084749553858 L474.1457625223071 106 L458.82915250446143 109.82915250446142 L455 125.14576252230711 L451.17084749553857 109.82915250446142 L435.8542374776929 106 L451.17084749553857 102.17084749553858 Z" fill="#fff" opacity="0.95"/><path d="M91 734.5691066843314 L94.08617866313372 746.9138213368662 L106.43089331566864 750 L94.08617866313372 753.0861786631338 L91 765.4308933156686 L87.91382133686628 753.0861786631338 L75.56910668433136 750 L87.91382133686628 746.9138213368662 Z" fill="#F0BBDD" opacity="0.81"/><path d="M228 758.666207125255 L231.266758574949 771.733241425051 L244.333792874745 775 L231.266758574949 778.266758574949 L228 791.333792874745 L224.733241425051 778.266758574949 L211.666207125255 775 L224.733241425051 771.733241425051 Z" fill="#fff" opacity="0.56"/><path d="M36 688.2338776473114 L41.353224470537725 709.6467755294623 L62.76612235268863 715 L41.353224470537725 720.3532244705377 L36 741.7661223526886 L30.646775529462275 720.3532244705377 L9.233877647311367 715 L30.646775529462275 709.6467755294623 Z" fill="#fff" opacity="0.58"/><circle cx="36" cy="715" r="3.5" fill="#fff"/><path d="M473 680.8163285920473 L475.6367342815906 691.3632657184095 L486.1836714079528 694 L475.6367342815906 696.6367342815905 L473 707.1836714079527 L470.3632657184094 696.6367342815905 L459.8163285920472 694 L470.3632657184094 691.3632657184095 Z" fill="#B7E6F0" opacity="0.77"/><path d="M35 833.9755837749576 L38.60488324500848 848.3951167549915 L53.02441622504239 852 L38.60488324500848 855.6048832450085 L35 870.0244162250424 L31.395116754991523 855.6048832450085 L16.975583774957613 852 L31.395116754991523 848.3951167549915 Z" fill="#fff" opacity="0.80"/><path d="M644 495.892114320254 L646.6215771359492 506.3784228640508 L657.107885679746 509 L646.6215771359492 511.6215771359492 L644 522.107885679746 L641.3784228640508 511.6215771359492 L630.892114320254 509 L641.3784228640508 506.3784228640508 Z" fill="#fff" opacity="0.80"/><path d="M520 889.3834887875167 L525.9233022424967 913.0766977575033 L549.6165112124833 919 L525.9233022424967 924.9233022424967 L520 948.6165112124833 L514.0766977575033 924.9233022424967 L490.38348878751674 919 L514.0766977575033 913.0766977575033 Z" fill="#fff" opacity="0.94"/><circle cx="520" cy="919" r="3.5" fill="#fff"/><path d="M47 506.3527444500256 L54.129451109994875 534.8705488900051 L82.64725554997439 542 L54.129451109994875 549.1294511099949 L47 577.6472555499744 L39.870548890005125 549.1294511099949 L11.352744450025611 542 L39.870548890005125 534.8705488900051 Z" fill="#B7E6F0" opacity="0.81"/><circle cx="47" cy="542" r="3.5" fill="#fff"/><path d="M441 614.2822358232374 L444.7435528353525 629.2564471646475 L459.71776417676256 633 L444.7435528353525 636.7435528353525 L441 651.7177641767626 L437.2564471646475 636.7435528353525 L422.28223582323744 633 L437.2564471646475 629.2564471646475 Z" fill="#fff" opacity="0.86"/><path d="M599 469.7318646068368 L605.4536270786326 495.5463729213674 L631.2681353931632 502 L605.4536270786326 508.4536270786326 L599 534.2681353931632 L592.5463729213674 508.4536270786326 L566.7318646068368 502 L592.5463729213674 495.5463729213674 Z" fill="#F0BBDD" opacity="0.64"/><circle cx="599" cy="502" r="3.5" fill="#fff"/><path d="M583 696.2328620507535 L586.1534275898493 708.8465724101507 L598.7671379492465 712 L586.1534275898493 715.1534275898493 L583 727.7671379492465 L579.8465724101507 715.1534275898493 L567.2328620507535 712 L579.8465724101507 708.8465724101507 Z" fill="#fff" opacity="0.88"/><path d="M380 717.725179111457 L386.4549641777086 743.5450358222914 L412.27482088854293 750 L386.4549641777086 756.4549641777086 L380 782.274820888543 L373.5450358222914 756.4549641777086 L347.72517911145707 750 L373.5450358222914 743.5450358222914 Z" fill="#B7E6F0" opacity="0.69"/><circle cx="380" cy="750" r="3.5" fill="#fff"/><path d="M746 630.267473436551 L748.1465053126898 638.8534946873102 L756.732526563449 641 L748.1465053126898 643.1465053126898 L746 651.732526563449 L743.8534946873102 643.1465053126898 L735.267473436551 641 L743.8534946873102 638.8534946873102 Z" fill="#fff" opacity="0.73"/><path d="M126 763.2956998168005 L132.1408600366399 787.8591399633601 L156.70430018319948 794 L132.1408600366399 800.1408600366399 L126 824.7043001831995 L119.85913996336011 800.1408600366399 L95.29569981680052 794 L119.85913996336011 787.8591399633601 Z" fill="#F0BBDD" opacity="0.94"/><circle cx="126" cy="794" r="3.5" fill="#fff"/><path d="M303 38.00083226850295 L305.5998335462994 48.40016645370059 L315.99916773149704 51 L305.5998335462994 53.59983354629941 L303 63.99916773149705 L300.4001664537006 53.59983354629941 L290.00083226850296 51 L300.4001664537006 48.40016645370059 Z" fill="#F0BBDD" opacity="0.88"/><path d="M33 827.8263837340411 L37.83472325319178 847.1652767468082 L57.17361626595893 852 L37.83472325319178 856.8347232531918 L33 876.1736162659589 L28.165276746808214 856.8347232531918 L8.826383734041073 852 L28.165276746808214 847.1652767468082 Z" fill="#fff" opacity="0.67"/><circle cx="33" cy="852" r="3.5" fill="#fff"/><path d="M447 646.7231358102165 L452.6553728379567 669.3446271620433 L475.2768641897835 675 L452.6553728379567 680.6553728379567 L447 703.2768641897835 L441.3446271620433 680.6553728379567 L418.7231358102165 675 L441.3446271620433 669.3446271620433 Z" fill="#fff" opacity="0.55"/><circle cx="447" cy="675" r="3.5" fill="#fff"/><path d="M656 320.0714672841464 L659.9857065431707 336.0142934568293 L675.9285327158535 340 L659.9857065431707 343.9857065431707 L656 359.9285327158536 L652.0142934568293 343.9857065431707 L636.0714672841465 340 L652.0142934568293 336.0142934568293 Z" fill="#fff" opacity="0.52"/><path d="M24 154.9947988865873 L27.201040222682543 167.79895977731746 L40.00520111341272 171 L27.201040222682543 174.20104022268254 L24 187.0052011134127 L20.798959777317457 174.20104022268254 L7.994798886587283 171 L20.798959777317457 167.79895977731746 Z" fill="#B7E6F0" opacity="0.53"/><path d="M518 228.6985688338515 L522.4602862332297 246.5397137667703 L540.3014311661485 251 L522.4602862332297 255.4602862332297 L518 273.30143116614846 L513.5397137667703 255.4602862332297 L495.69856883385154 251 L513.5397137667703 246.5397137667703 Z" fill="#B7E6F0" opacity="0.70"/><path d="M246 216.02921073838564 L250.99415785232287 236.00584214767713 L270.97078926161436 241 L250.99415785232287 245.99415785232287 L246 265.97078926161436 L241.00584214767713 245.99415785232287 L221.02921073838564 241 L241.00584214767713 236.00584214767713 Z" fill="#fff" opacity="0.82"/><circle cx="246" cy="241" r="3.5" fill="#fff"/><path d="M669 508.63892737433264 L672.8722145251335 524.1277854748665 L688.3610726256674 528 L672.8722145251335 531.8722145251335 L669 547.3610726256674 L665.1277854748665 531.8722145251335 L649.6389273743326 528 L665.1277854748665 524.1277854748665 Z" fill="#fff" opacity="0.55"/><path d="M353 588.5954305094646 L359.2809138981071 613.7190861018929 L384.40456949053544 620 L359.2809138981071 626.2809138981071 L353 651.4045694905354 L346.7190861018929 626.2809138981071 L321.59543050946456 620 L346.7190861018929 613.7190861018929 Z" fill="#fff" opacity="0.82"/><circle cx="353" cy="620" r="3.5" fill="#fff"/><path d="M381 972.0728412526998 L385.58543174946004 990.41456825054 L403.9271587473001 995 L385.58543174946004 999.58543174946 L381 1017.9271587473002 L376.41456825053996 999.58543174946 L358.0728412526999 995 L376.41456825053996 990.41456825054 Z" fill="#fff" opacity="0.78"/><path d="M575 -4.313673702214693 L580.6627347404429 18.33726525955706 L603.3136737022147 24 L580.6627347404429 29.66273474044294 L575 52.31367370221469 L569.3372652595571 29.66273474044294 L546.6863262977853 24 L569.3372652595571 18.33726525955706 Z" fill="#fff" opacity="0.76"/><circle cx="575" cy="24" r="3.5" fill="#fff"/><path d="M364 808.1900094413152 L366.76199811173694 819.238001888263 L377.8099905586848 822 L366.76199811173694 824.761998111737 L364 835.8099905586848 L361.23800188826306 824.761998111737 L350.1900094413152 822 L361.23800188826306 819.238001888263 Z" fill="#B7E6F0" opacity="0.88"/><path d="M83 710.5930322383498 L90.08139355233004 738.91860644767 L118.40696776165021 746 L90.08139355233004 753.08139355233 L83 781.4069677616502 L75.91860644766996 753.08139355233 L47.5930322383498 746 L75.91860644766996 738.91860644767 Z" fill="#F0BBDD" opacity="0.58"/><circle cx="83" cy="746" r="3.5" fill="#fff"/><path d="M345 875.6738937029959 L351.8652212594008 903.1347787405991 L379.3261062970041 910 L351.8652212594008 916.8652212594009 L345 944.3261062970041 L338.1347787405992 916.8652212594009 L310.6738937029959 910 L338.1347787405992 903.1347787405991 Z" fill="#B7E6F0" opacity="0.77"/><circle cx="345" cy="910" r="3.5" fill="#fff"/><path d="M97 213.4683928422017 L99.50632143155966 223.49367856844034 L109.5316071577983 226 L99.50632143155966 228.50632143155966 L97 238.5316071577983 L94.49367856844034 228.50632143155966 L84.4683928422017 226 L94.49367856844034 223.49367856844034 Z" fill="#fff" opacity="0.71"/><path d="M119 513.5110446454543 L123.09779107090914 529.9022089290909 L139.4889553545457 534 L123.09779107090914 538.0977910709091 L119 554.4889553545457 L114.90220892909086 538.0977910709091 L98.51104464545429 534 L114.90220892909086 529.9022089290909 Z" fill="#fff" opacity="0.53"/><path d="M714 878.4929367436529 L717.5014126512694 892.4985873487306 L731.5070632563471 896 L717.5014126512694 899.5014126512694 L714 913.5070632563471 L710.4985873487306 899.5014126512694 L696.4929367436529 896 L710.4985873487306 892.4985873487306 Z" fill="#F0BBDD" opacity="0.58"/><path d="M456 332.3383857059937 L463.1323228588013 360.8676771411987 L491.6616142940063 368 L463.1323228588013 375.1323228588013 L456 403.6616142940063 L448.8676771411987 375.1323228588013 L420.3383857059937 368 L448.8676771411987 360.8676771411987 Z" fill="#fff" opacity="0.63"/><circle cx="456" cy="368" r="3.5" fill="#fff"/><path d="M238 1020.0117357000763 L241.19765285998474 1032.8023471400152 L253.98826429992369 1036 L241.19765285998474 1039.1976528599848 L238 1051.9882642999237 L234.80234714001526 1039.1976528599848 L222.01173570007631 1036 L234.80234714001526 1032.8023471400152 Z" fill="#B7E6F0" opacity="0.59"/><path d="M470 261.25712266902303 L475.7485754661954 284.2514245338046 L498.74287733097697 290 L475.7485754661954 295.7485754661954 L470 318.74287733097697 L464.2514245338046 295.7485754661954 L441.25712266902303 290 L464.2514245338046 284.2514245338046 Z" fill="#B7E6F0" opacity="0.73"/><circle cx="470" cy="290" r="3.5" fill="#fff"/></svg>
