<svg xmlns="http://www.w3.org/2000/svg" viewBox="0 0 800 1100"><rect width="800" height="1100" fill="#33507A"/><path d="M-1100 0 L0 1100 M-1086 0 L14 1100 M-1072 0 L28 1100 M-1058 0 L42 1100 M-1044 0 L56 1100 M-1030 0 L70 1100 M-1016 0 L84 1100 M-1002 0 L98 1100 M-988 0 L112 1100 M-974 0 L126 1100 M-960 0 L140 1100 M-946 0 L154 1100 M-932 0 L168 1100 M-918 0 L182 1100 M-904 0 L196 1100 M-890 0 L210 1100 M-876 0 L224 1100 M-862 0 L238 1100 M-848 0 L252 1100 M-834 0 L266 1100 M-820 0 L280 1100 M-806 0 L294 1100 M-792 0 L308 1100 M-778 0 L322 1100 M-764 0 L336 1100 M-750 0 L350 1100 M-736 0 L364 1100 M-722 0 L378 1100 M-708 0 L392 1100 M-694 0 L406 1100 M-680 0 L420 1100 M-666 0 L434 1100 M-652 0 L448 1100 M-638 0 L462 1100 M-624 0 L476 1100 M-610 0 L490 1100 M-596 0 L504 1100 M-582 0 L518 1100 M-568 0 L532 1100 M-554 0 L546 1100 M-540 0 L560 1100 M-526 0 L574 1100 M-512 0 L588 1100 M-498 0 L602 1100 M-484 0 L616 1100 M-470 0 L630 1100 M-456 0 L644 1100 M-442 0 L658 1100 M-428 0 L672 1100 M-414 0 L686 1100 M-400 0 L700 1100 M-386 0 L714 1100 M-372 0 L728 1100 M-358 0 L742 1100 M-344 0 L756 1100 M-330 0 L770 1100 M-316 0 L784 1100 M-302 0 L798 1100 M-288 0 L812 1100 M-274 0 L826 1100 M-260 0 L840 1100 M-246 0 L854 1100 M-232 0 L868 1100 M-218 0 L882 1100 M-204 0 L896 1100 M-190 0 L910 1100 M-176 0 L924 1100 M-162 0 L938 1100 M-148 0 L952 1100 M-134 0 L966 1100 M-120 0 L980 1100 M-106 0 L994 1100 M-92 0 L1008 1100 M-78 0 L1022 1100 M-64 0 L1036 1100 M-50 0 L1050 1100 M-36 0 L1064 1100 M-22 0 L1078 1100 M-8 0 L1092 1100 M6 0 L1106 1100 M20 0 L1120 1100 M34 0 L1134 1100 M48 0 L1148 1100 M62 0 L1162 1100 M76 0 L1176 1100 M90 0 L1190 1100 M104 0 L1204 1100 M118 0 L1218 1100 M132 0 L1232 1100 M146 0 L1246 1100 M160 0 L1260 1100 M174 0 L1274 1100 M188 0 L1288 1100 M202 0 L1302 1100 M216 0 L1316 1100 M230 0 L1330 1100 M244 0 L1344 1100 M258 0 L1358 1100 M272 0 L1372 1100 M286 0 L1386 1100 M300 0 L1400 1100 M314 0 L1414 1100 M328 0 L1428 1100 M342 0 L1442 1100 M356 0 L1456 1100 M370 0 L1470 1100 M384 0 L1484 1100 M398 0 L1498 1100 M412 0 L1512 1100 M426 0 L1526 1100 M440 0 L1540 1100 M454 0 L1554 1100 M468 0 L1568 1100 M482 0 L1582 1100 M496 0 L1596 1100 M510 0 L1610 1100 M524 0 L1624 1100 M538 0 L1638 1100 M552 0 L1652 1100 M566 0 L1666 1100 M580 0 L1680 1100 M594 0 L1694 1100 M608 0 L1708 1100 M622 0 L1722 1100 M636 0 L1736 1100 M650 0 L1750 1100 M664 0 L1764 1100 M678 0 L1778 1100 M692 0 L1792 1100 M706 0 L1806 1100 M720 0 L1820 1100 M734 0 L1834 1100 M748 0 L1848 1100 M762 0 L1862 1100 M776 0 L1876 1100 M790 0 L1890 1100 " stroke="#2B4468" stroke-width="3"/><path d="M-1093 0 L7 1100 M-1079 0 L21 1100 M-1065 0 L35 1100 M-1051 0 L49 1100 M-1037 0 L63 1100 M-1023 0 L77 1100 M-1009 0 L91 1100 M-995 0 L105 1100 M-981 0 L119 1100 M-967 0 L133 1100 M-953 0 L147 1100 M-939 0 L161 1100 M-925 0 L175 1100 M-911 0 L189 1100 M-897 0 L203 1100 M-883 0 L217 1100 M-869 0 L231 1100 M-855 0 L245 1100 M-841 0 L259 1100 M-827 0 L273 1100 M-813 0 L287 1100 M-799 0 L301 1100 M-785 0 L315 1100 M-771 0 L329 1100 M-757 0 L343 1100 M-743 0 L357 1100 M-729 0 L371 1100 M-715 0 L385 1100 M-701 0 L399 1100 M-687 0 L413 1100 M-673 0 L427 1100 M-659 0 L441 1100 M-645 0 L455 1100 M-631 0 L469 1100 M-617 0 L483 1100 M-603 0 L497 1100 M-589 0 L511 1100 M-575 0 L525 1100 M-561 0 L539 1100 M-547 0 L553 1100 M-533 0 L567 1100 M-519 0 L581 1100 M-505 0 L595 1100 M-491 0 L609 1100 M-477 0 L623 1100 M-463 0 L637 1100 M-449 0 L651 1100 M-435 0 L665 1100 M-421 0 L679 1100 M-407 0 L693 1100 M-393 0 L707 1100 M-379 0 L721 1100 M-365 0 L735 1100 M-351 0 L749 1100 M-337 0 L763 1100 M-323 0 L777 1100 M-309 0 L791 1100 M-295 0 L805 1100 M-281 0 L819 1100 M-267 0 L833 1100 M-253 0 L847 1100 M-239 0 L861 1100 M-225 0 L875 1100 M-211 0 L889 1100 M-197 0 L903 1100 M-183 0 L917 1100 M-169 0 L931 1100 M-155 0 L945 1100 M-141 0 L959 1100 M-127 0 L973 1100 M-113 0 L987 1100 M-99 0 L1001 1100 M-85 0 L1015 1100 M-71 0 L1029 1100 M-57 0 L1043 1100 M-43 0 L1057 1100 M-29 0 L1071 1100 M-15 0 L1085 1100 M-1 0 L1099 1100 M13 0 L1113 1100 M27 0 L1127 1100 M41 0 L1141 1100 M55 0 L1155 1100 M69 0 L1169 1100 M83 0 L1183 1100 M97 0 L1197 1100 M111 0 L1211 1100 M125 0 L1225 1100 M139 0 L1239 1100 M153 0 L1253 1100 M167 0 L1267 1100 M181 0 L1281 1100 M195 0 L1295 1100 M209 0 L1309 1100 M223 0 L1323 1100 M237 0 L1337 1100 M251 0 L1351 1100 M265 0 L1365 1100 M279 0 L1379 1100 M293 0 L1393 1100 M307 0 L1407 1100 M321 0 L1421 1100 M335 0 L1435 1100 M349 0 L1449 1100 M363 0 L1463 1100 M377 0 L1477 1100 M391 0 L1491 1100 M405 0 L1505 1100 M419 0 L1519 1100 M433 0 L1533 1100 M447 0 L1547 1100 M461 0 L1561 1100 M475 0 L1575 1100 M489 0 L1589 1100 M503 0 L1603 1100 M517 0 L1617 1100 M531 0 L1631 1100 M545 0 L1645 1100 M559 0 L1659 1100 M573 0 L1673 1100 M587 0 L1687 1100 M601 0 L1701 1100 M615 0 L1715 1100 M629 0 L1729 1100 M643 0 L1743 1100 M657 0 L1757 1100 M671 0 L1771 1100 M685 0 L1785 1100 M699 0 L1799 1100 M713 0 L1813 1100 M727 0 L1827 1100 M741 0 L1841 1100 M755 0 L1855 1100 M769 0 L1869 1100 M783 0 L1883 1100 M797 0 L1897 1100 " stroke="#3C5C8A" stroke-width="1.6"/></svg>
