<svg xmlns="http://www.w3.org/2000/svg" viewBox="0 0 800 1100"><rect width="800" height="1100" fill="#141327"/><ellipse cx="540" cy="320" rx="320" ry="180" fill="#2a2350" opacity=".55" transform="rotate(-24 540 320)"/><ellipse cx="240" cy="800" rx="280" ry="150" fill="#1d2c52" opacity=".5" transform="rotate(18 240 800)"/><circle cx="0" cy="24" r="1.8" fill="#fff" opacity="0.53"/><circle cx="595" cy="744" r="1.6" fill="#fff" opacity="0.40"/><circle cx="200" cy="588" r="2.0" fill="#fff" opacity="0.55"/><circle cx="212" cy="464" r="1.0" fill="#fff" opacity="0.56"/><circle cx="355" cy="838" r="2.0" fill="#fff" opacity="0.68"/><circle cx="264" cy="1089" r="1.0" fill="#fff" opacity="0.33"/><circle cx="616" cy="182" r="0.7" fill="#fff" opacity="0.77"/><circle cx="147" cy="459" r="0.7" fill="#fff" opacity="0.57"/><circle cx="786" cy="768" r="1.9" fill="#fff" opacity="0.60"/><circle cx="504" cy="973" r="0.7" fill="#fff" opacity="0.37"/><circle cx="365" cy="299" r="1.4" fill="#fff" opacity="0.66"/><circle cx="400" cy="215" r="1.4" fill="#fff" opacity="0.66"/><circle cx="798" cy="225" r="1.9" fill="#fff" opacity="0.46"/><circle cx="431" cy="237" r="1.4" fill="#fff" opacity="0.59"/><circle cx="132" cy="954" r="0.5" fill="#fff" opacity="0.95"/><circle cx="448" cy="1042" r="0.7" fill="#fff" opacity="0.66"/><circle cx="542" cy="994" r="1.1" fill="#fff" opacity="0.94"/><circle cx="662" cy="331" r="1.4" fill="#fff" opacity="0.27"/><circle cx="344" cy="514" r="1.2" fill="#fff" opacity="0.94"/><circle cx="125" cy="1054" r="1.1" fill="#fff" opacity="0.43"/><circle cx="763" cy="452" r="1.4" fill="#fff" opacity="0.36"/><circle cx="765" cy="357" r="1.9" fill="#fff" opacity="0.82"/><circle cx="757" cy="1065" r="0.6" fill="#fff" opacity="0.48"/><circle cx="600" cy="895" r="1.3" fill="#fff" opacity="0.78"/><circle cx="636" cy="340" r="1.6" fill="#fff" opacity="0.34"/><circle cx="154" cy="356" r="1.2" fill="#fff" opacity="0.71"/><circle cx="174" cy="653" r="1.2" fill="#fff" opacity="0.44"/><circle cx="728" cy="384" r="1.4" fill="#fff" opacity="0.31"/><circle cx="723" cy="201" r="1.9" fill="#fff" opacity="0.50"/><circle cx="653" cy="68" r="1.7" fill="#fff" opacity="0.89"/><circle cx="6" cy="202" r="1.0" fill="#fff" opacity="0.26"/><circle cx="528" cy="299" r="1.9" fill="#fff" opacity="0.78"/><circle cx="726" cy="480" r="1.8" fill="#fff" opacity="0.64"/><circle cx="706" cy="498" r="0.8" fill="#fff" opacity="0.52"/><circle cx="379" cy="666" r="0.7" fill="#fff" opacity="0.75"/><circle cx="336" cy="644" r="0.6" fill="#fff" opacity="0.72"/><circle cx="277" cy="514" r="0.6" fill="#fff" opacity="0.90"/><circle cx="768" cy="399" r="2.0" fill="#fff" opacity="0.35"/><circle cx="381" cy="853" r="1.5" fill="#fff" opacity="0.46"/><circle cx="435" cy="521" r="1.4" fill="#fff" opacity="0.60"/><circle cx="429" cy="183" r="1.4" fill="#fff" opacity="0.34"/><circle cx="647" cy="292" r="0.9" fill="#fff" opacity="0.29"/><circle cx="640" cy="683" r="2.1" fill="#fff" opacity="0.73"/><circle cx="100" cy="63" r="0.6" fill="#fff" opacity="0.37"/><circle cx="42" cy="413" r="1.4" fill="#fff" opacity="0.30"/><circle cx="482" cy="855" r="0.6" fill="#fff" opacity="0.42"/><circle cx="410" cy="340" r="0.9" fill="#fff" opacity="0.94"/><circle cx="609" cy="247" r="1.5" fill="#fff" opacity="0.31"/><circle cx="351" cy="1032" r="1.8" fill="#fff" opacity="0.78"/><circle cx="148" cy="705" r="1.3" fill="#fff" opacity="0.70"/><circle cx="167" cy="570" r="1.7" fill="#fff" opacity="0.59"/><circle cx="220" cy="706" r="0.8" fill="#fff" opacity="0.90"/><circle cx="191" cy="1087" r="0.7" fill="#fff" opacity="0.80"/><circle cx="451" cy="269" r="0.6" fill="#fff" opacity="0.84"/><circle cx="217" cy="1041" r="1.2" fill="#fff" opacity="0.87"/><circle cx="573" cy="1071" r="1.9" fill="#fff" opacity="0.57"/><circle cx="503" cy="445" r="0.7" fill="#fff" opacity="0.62"/><circle cx="604" cy="821" r="1.7" fill="#fff" opacity="0.33"/><circle cx="680" cy="858" r="1.4" fill="#fff" opacity="0.91"/><circle cx="270" cy="171" r="0.9" fill="#fff" opacity="0.92"/><circle cx="215" cy="586" r="1.0" fill="#fff" opacity="0.85"/><circle cx="120" cy="1034" r="2.0" fill="#fff" opacity="0.39"/><circle cx="334" cy="20" r="0.6" fill="#fff" opacity="0.31"/><circle cx="449" cy="6" r="1.5" fill="#fff" opacity="0.50"/><circle cx="453" cy="413" r="1.0" fill="#fff" opacity="0.81"/><circle cx="146" cy="46" r="1.1" fill="#fff" opacity="0.31"/><circle cx="509" cy="360" r="0.8" fill="#fff" opacity="0.35"/><circle cx="20" cy="542" r="0.9" fill="#fff" opacity="0.81"/><circle cx="476" cy="717" r="1.3" fill="#fff" opacity="0.33"/><circle cx="727" cy="662" r="1.8" fill="#fff" opacity="0.90"/><circle cx="162" cy="132" r="2.1" fill="#fff" opacity="0.49"/><circle cx="129" cy="168" r="1.3" fill="#fff" opacity="0.54"/><circle cx="400" cy="562" r="0.5" fill="#fff" opacity="0.68"/><circle cx="644" cy="505" r="0.7" fill="#fff" opacity="0.29"/><circle cx="577" cy="920" r="1.9" fill="#fff" opacity="0.73"/><circle cx="742" cy="595" r="1.0" fill="#fff" opacity="0.75"/><circle cx="470" cy="245" r="1.3" fill="#fff" opacity="0.64"/><circle cx="226" cy="688" r="1.3" fill="#fff" opacity="0.31"/><circle cx="669" cy="231" r="1.5" fill="#fff" opacity="0.67"/><circle cx="129" cy="7" r="0.6" fill="#fff" opacity="0.36"/><circle cx="410" cy="139" r="0.8" fill="#fff" opacity="0.45"/><circle cx="318" cy="358" r="1.7" fill="#fff" opacity="0.41"/><circle cx="232" cy="719" r="1.5" fill="#fff" opacity="0.71"/><circle cx="726" cy="263" r="0.7" fill="#fff" opacity="0.53"/><circle cx="520" cy="822" r="1.5" fill="#fff" opacity="0.35"/><circle cx="405" cy="1042" r="1.9" fill="#fff" opacity="0.34"/><circle cx="284" cy="583" r="1.5" fill="#fff" opacity="0.30"/><circle cx="667" cy="641" r="0.8" fill="#fff" opacity="0.58"/><circle cx="625" cy="1054" r="1.6" fill="#fff" opacity="0.87"/><circle cx="271" cy="41" r="1.5" fill="#fff" opacity="0.78"/><circle cx="75" cy="528" r="0.7" fill="#fff" opacity="0.71"/><circle cx="54" cy="953" r="1.1" fill="#fff" opacity="0.28"/><circle cx="341" cy="608" r="1.6" fill="#fff" opacity="0.33"/><circle cx="714" cy="204" r="2.0" fill="#fff" opacity="0.94"/><circle cx="59" cy="249" r="1.6" fill="#fff" opacity="0.54"/><circle cx="129" cy="959" r="1.6" fill="#fff" opacity="0.69"/><circle cx="757" cy="463" r="0.6" fill="#fff" opacity="0.89"/><circle cx="116" cy="469" r="1.3" fill="#fff" opacity="0.89"/><circle cx="164" cy="690" r="1.9" fill="#fff" opacity="0.48"/><circle cx="494" cy="944" r="1.4" fill="#fff" opacity="0.51"/><circle cx="152" cy="65" r="0.9" fill="#fff" opacity="0.41"/><circle cx="261" cy="823" r="1.7" fill="#fff" opacity="0.82"/><circle cx="739" cy="777" r="2.0" fill="#fff" opacity="0.44"/><circle cx="460" cy="893" r="1.9" fill="#fff" opacity="0.58"/><circle cx="794" cy="953" r="1.5" fill="#fff" opacity="0.53"/><circle cx="7" cy="332" r="0.9" fill="#fff" opacity="0.59"/><circle cx="161" cy="968" r="1.0" fill="#fff" opacity="0.62"/><circle cx="694" cy="219" r="1.2" fill="#fff" opacity="0.80"/><circle cx="552" cy="771" r="1.6" fill="#fff" opacity="0.36"/><circle cx="610" cy="996" r="1.1" fill="#fff" opacity="0.58"/><circle cx="32" cy="172" r="0.9" fill="#fff" opacity="0.31"/><circle cx="418" cy="141" r="1.1" fill="#fff" opacity="0.70"/><circle cx="624" cy="878" r="0.7" fill="#fff" opacity="0.58"/><circle cx="586" cy="493" r="1.0" fill="#fff" opacity="0.93"/><circle cx="360" cy="706" r="1.9" fill="#fff" opacity="0.26"/><circle cx="393" cy="982" r="0.8" fill="#fff" opacity="0.46"/><circle cx="632" cy="806" r="0.7" fill="#fff" opacity="0.87"/><circle cx="432" cy="821" r="0.9" fill="#fff" opacity="0.36"/><circle cx="481" cy="463" r="1.0" fill="#fff" opacity="0.78"/><circle cx="134" cy="59" r="0.7" fill="#fff" opacity="0.80"/><circle cx="192" cy="397" r="2.0" fill="#fff" opacity="0.92"/><circle cx="744" cy="191" r="1.3" fill="#fff" opacity="0.79"/><circle cx="484" cy="156" r="1.3" fill="#fff" opacity="0.37"/><circle cx="414" cy="533" r="2.0" fill="#fff" opacity="0.67"/><circle cx="661" cy="1039" r="1.6" fill="#fff" opacity="0.68"/><circle cx="35" cy="852" r="0.9" fill="#fff" opacity="0.34"/><circle cx="518" cy="469" r="1.6" fill="#fff" opacity="0.82"/><circle cx="572" cy="591" r="1.1" fill="#fff" opacity="0.93"/><circle cx="747" cy="531" r="1.3" fill="#fff" opacity="0.79"/><circle cx="608" cy="511" r="0.8" fill="#fff" opacity="0.47"/></svg>
