<svg xmlns="http://www.w3.org/2000/svg" viewBox="0 0 800 1100"><defs><linearGradient id="sky" x1="0" y1="0" x2="0" y2="1"><stop offset="0" stop-color="#120f2e"/><stop offset=".62" stop-color="#3b1d5e"/><stop offset=".66" stop-color="#b8336a"/></linearGradient></defs><rect width="800" height="1100" fill="url(#sky)"/><circle cx="0" cy="8" r="1.8" fill="#fff" opacity="0.53"/><circle cx="595" cy="257" r="1.6" fill="#fff" opacity="0.40"/><circle cx="200" cy="203" r="2.0" fill="#fff" opacity="0.55"/><circle cx="212" cy="160" r="1.0" fill="#fff" opacity="0.56"/><circle cx="355" cy="289" r="2.0" fill="#fff" opacity="0.68"/><circle cx="264" cy="376" r="1.0" fill="#fff" opacity="0.33"/><circle cx="616" cy="63" r="0.7" fill="#fff" opacity="0.77"/><circle cx="147" cy="158" r="0.7" fill="#fff" opacity="0.57"/><circle cx="786" cy="265" r="1.9" fill="#fff" opacity="0.60"/><circle cx="504" cy="336" r="0.7" fill="#fff" opacity="0.37"/><circle cx="365" cy="103" r="1.4" fill="#fff" opacity="0.66"/><circle cx="400" cy="74" r="1.4" fill="#fff" opacity="0.66"/><circle cx="798" cy="77" r="1.9" fill="#fff" opacity="0.46"/><circle cx="431" cy="81" r="1.4" fill="#fff" opacity="0.59"/><circle cx="132" cy="329" r="0.5" fill="#fff" opacity="0.95"/><circle cx="448" cy="360" r="0.7" fill="#fff" opacity="0.66"/><circle cx="542" cy="343" r="1.1" fill="#fff" opacity="0.94"/><circle cx="662" cy="114" r="1.4" fill="#fff" opacity="0.27"/><circle cx="344" cy="177" r="1.2" fill="#fff" opacity="0.94"/><circle cx="125" cy="364" r="1.1" fill="#fff" opacity="0.43"/><circle cx="763" cy="156" r="1.4" fill="#fff" opacity="0.36"/><circle cx="765" cy="123" r="1.9" fill="#fff" opacity="0.82"/><circle cx="757" cy="368" r="0.6" fill="#fff" opacity="0.48"/><circle cx="600" cy="309" r="1.3" fill="#fff" opacity="0.78"/><circle cx="636" cy="117" r="1.6" fill="#fff" opacity="0.34"/><circle cx="154" cy="123" r="1.2" fill="#fff" opacity="0.71"/><circle cx="174" cy="225" r="1.2" fill="#fff" opacity="0.44"/><circle cx="728" cy="132" r="1.4" fill="#fff" opacity="0.31"/><circle cx="723" cy="69" r="1.9" fill="#fff" opacity="0.50"/><circle cx="653" cy="23" r="1.7" fill="#fff" opacity="0.89"/><circle cx="6" cy="70" r="1.0" fill="#fff" opacity="0.26"/><circle cx="528" cy="103" r="1.9" fill="#fff" opacity="0.78"/><circle cx="726" cy="165" r="1.8" fill="#fff" opacity="0.64"/><circle cx="706" cy="172" r="0.8" fill="#fff" opacity="0.52"/><circle cx="379" cy="230" r="0.7" fill="#fff" opacity="0.75"/><circle cx="336" cy="222" r="0.6" fill="#fff" opacity="0.72"/><circle cx="277" cy="177" r="0.6" fill="#fff" opacity="0.90"/><circle cx="768" cy="137" r="2.0" fill="#fff" opacity="0.35"/><circle cx="381" cy="294" r="1.5" fill="#fff" opacity="0.46"/><circle cx="435" cy="180" r="1.4" fill="#fff" opacity="0.60"/><circle cx="429" cy="63" r="1.4" fill="#fff" opacity="0.34"/><circle cx="647" cy="100" r="0.9" fill="#fff" opacity="0.29"/><circle cx="640" cy="235" r="2.1" fill="#fff" opacity="0.73"/><circle cx="100" cy="21" r="0.6" fill="#fff" opacity="0.37"/><circle cx="42" cy="142" r="1.4" fill="#fff" opacity="0.30"/><circle cx="482" cy="295" r="0.6" fill="#fff" opacity="0.42"/><circle cx="410" cy="117" r="0.9" fill="#fff" opacity="0.94"/><circle cx="609" cy="85" r="1.5" fill="#fff" opacity="0.31"/><circle cx="351" cy="356" r="1.8" fill="#fff" opacity="0.78"/><circle cx="148" cy="243" r="1.3" fill="#fff" opacity="0.70"/><circle cx="167" cy="197" r="1.7" fill="#fff" opacity="0.59"/><circle cx="220" cy="244" r="0.8" fill="#fff" opacity="0.90"/><circle cx="191" cy="375" r="0.7" fill="#fff" opacity="0.80"/><circle cx="451" cy="93" r="0.6" fill="#fff" opacity="0.84"/><circle cx="217" cy="359" r="1.2" fill="#fff" opacity="0.87"/><circle cx="573" cy="370" r="1.9" fill="#fff" opacity="0.57"/><circle cx="503" cy="154" r="0.7" fill="#fff" opacity="0.62"/><circle cx="604" cy="283" r="1.7" fill="#fff" opacity="0.33"/><circle cx="680" cy="296" r="1.4" fill="#fff" opacity="0.91"/><circle cx="270" cy="59" r="0.9" fill="#fff" opacity="0.92"/><circle cx="215" cy="202" r="1.0" fill="#fff" opacity="0.85"/><circle cx="120" cy="357" r="2.0" fill="#fff" opacity="0.39"/><circle cx="334" cy="7" r="0.6" fill="#fff" opacity="0.31"/><circle cx="449" cy="2" r="1.5" fill="#fff" opacity="0.50"/><circle cx="453" cy="142" r="1.0" fill="#fff" opacity="0.81"/><circle cx="146" cy="15" r="1.1" fill="#fff" opacity="0.31"/><circle cx="509" cy="124" r="0.8" fill="#fff" opacity="0.35"/><circle cx="20" cy="187" r="0.9" fill="#fff" opacity="0.81"/><circle cx="476" cy="247" r="1.3" fill="#fff" opacity="0.33"/><circle cx="727" cy="229" r="1.8" fill="#fff" opacity="0.90"/><circle cx="162" cy="45" r="2.1" fill="#fff" opacity="0.49"/><circle cx="129" cy="58" r="1.3" fill="#fff" opacity="0.54"/><circle cx="400" cy="194" r="0.5" fill="#fff" opacity="0.68"/><circle cx="644" cy="174" r="0.7" fill="#fff" opacity="0.29"/><circle cx="577" cy="318" r="1.9" fill="#fff" opacity="0.73"/><circle cx="742" cy="205" r="1.0" fill="#fff" opacity="0.75"/><circle cx="470" cy="84" r="1.3" fill="#fff" opacity="0.64"/><circle cx="226" cy="237" r="1.3" fill="#fff" opacity="0.31"/><circle cx="669" cy="80" r="1.5" fill="#fff" opacity="0.67"/><circle cx="129" cy="2" r="0.6" fill="#fff" opacity="0.36"/><circle cx="410" cy="48" r="0.8" fill="#fff" opacity="0.45"/><circle cx="318" cy="123" r="1.7" fill="#fff" opacity="0.41"/><circle cx="232" cy="248" r="1.5" fill="#fff" opacity="0.71"/><circle cx="726" cy="91" r="0.7" fill="#fff" opacity="0.53"/><circle cx="520" cy="284" r="1.5" fill="#fff" opacity="0.35"/><circle cx="405" cy="360" r="1.9" fill="#fff" opacity="0.34"/><circle cx="284" cy="201" r="1.5" fill="#fff" opacity="0.30"/><circle cx="667" cy="221" r="0.8" fill="#fff" opacity="0.58"/><circle cx="625" cy="364" r="1.6" fill="#fff" opacity="0.87"/><circle cx="271" cy="14" r="1.5" fill="#fff" opacity="0.78"/><circle cx="75" cy="182" r="0.7" fill="#fff" opacity="0.71"/><circle cx="54" cy="329" r="1.1" fill="#fff" opacity="0.28"/><circle cx="341" cy="210" r="1.6" fill="#fff" opacity="0.33"/><circle cx="714" cy="70" r="2.0" fill="#fff" opacity="0.94"/><circle cx="59" cy="86" r="1.6" fill="#fff" opacity="0.54"/><circle cx="129" cy="331" r="1.6" fill="#fff" opacity="0.69"/><circle cx="757" cy="160" r="0.6" fill="#fff" opacity="0.89"/><circle cx="116" cy="162" r="1.3" fill="#fff" opacity="0.89"/><circle cx="164" cy="238" r="1.9" fill="#fff" opacity="0.48"/><circle cx="494" cy="326" r="1.4" fill="#fff" opacity="0.51"/><circle cx="152" cy="22" r="0.9" fill="#fff" opacity="0.41"/><circle cx="261" cy="284" r="1.7" fill="#fff" opacity="0.82"/><circle cx="739" cy="268" r="2.0" fill="#fff" opacity="0.44"/><circle cx="460" cy="308" r="1.9" fill="#fff" opacity="0.58"/><circle cx="794" cy="329" r="1.5" fill="#fff" opacity="0.53"/><circle cx="7" cy="114" r="0.9" fill="#fff" opacity="0.59"/><circle cx="161" cy="334" r="1.0" fill="#fff" opacity="0.62"/><circle cx="694" cy="75" r="1.2" fill="#fff" opacity="0.80"/><circle cx="552" cy="266" r="1.6" fill="#fff" opacity="0.36"/><circle cx="610" cy="344" r="1.1" fill="#fff" opacity="0.58"/><circle cx="32" cy="59" r="0.9" fill="#fff" opacity="0.31"/><circle cx="418" cy="48" r="1.1" fill="#fff" opacity="0.70"/><circle cx="624" cy="303" r="0.7" fill="#fff" opacity="0.58"/><circle cx="586" cy="170" r="1.0" fill="#fff" opacity="0.93"/><circle cx="360" cy="244" r="1.9" fill="#fff" opacity="0.26"/><circle cx="393" cy="339" r="0.8" fill="#fff" opacity="0.46"/><circle cx="632" cy="278" r="0.7" fill="#fff" opacity="0.87"/><circle cx="432" cy="283" r="0.9" fill="#fff" opacity="0.36"/><circle cx="481" cy="160" r="1.0" fill="#fff" opacity="0.78"/><circle cx="134" cy="20" r="0.7" fill="#fff" opacity="0.80"/><circle cx="192" cy="137" r="2.0" fill="#fff" opacity="0.92"/><circle cx="744" cy="66" r="1.3" fill="#fff" opacity="0.79"/><circle cx="484" cy="54" r="1.3" fill="#fff" opacity="0.37"/><circle cx="414" cy="184" r="2.0" fill="#fff" opacity="0.67"/><circle cx="661" cy="359" r="1.6" fill="#fff" opacity="0.68"/><circle cx="35" cy="294" r="0.9" fill="#fff" opacity="0.34"/><circle cx="518" cy="162" r="1.6" fill="#fff" opacity="0.82"/><circle cx="572" cy="204" r="1.1" fill="#fff" opacity="0.93"/><circle cx="747" cy="183" r="1.3" fill="#fff" opacity="0.79"/><circle cx="608" cy="176" r="0.8" fill="#fff" opacity="0.47"/><circle cx="400" cy="700" r="120" fill="#ff7a59" opacity=".9"/><rect y="715" width="800" height="385" fill="#16102e"/><g stroke="#e051b6" stroke-width="2" opacity=".8"><line x1="256" y1="715" x2="-920" y2="1100"/><line x1="280" y1="715" x2="-700" y2="1100"/><line x1="304" y1="715" x2="-480" y2="1100"/><line x1="328" y1="715" x2="-260" y2="1100"/><line x1="352" y1="715" x2="-40" y2="1100"/><line x1="376" y1="715" x2="180" y2="1100"/><line x1="400" y1="715" x2="400" y2="1100"/><line x1="424" y1="715" x2="620" y2="1100"/><line x1="448" y1="715" x2="840" y2="1100"/><line x1="472" y1="715" x2="1060" y2="1100"/><line x1="496" y1="715" x2="1280" y2="1100"/><line x1="520" y1="715" x2="1500" y2="1100"/><line x1="544" y1="715" x2="1720" y2="1100"/><line x1="0" y1="723" x2="800" y2="723"/><line x1="0" y1="747" x2="800" y2="747"/><line x1="0" y1="787" x2="800" y2="787"/><line x1="0" y1="843" x2="800" y2="843"/><line x1="0" y1="915" x2="800" y2="915"/><line x1="0" y1="1003" x2="800" y2="1003"/><line x1="0" y1="1107" x2="800" y2="1107"/></g></svg>
