<svg xmlns="http://www.w3.org/2000/svg" viewBox="0 0 800 1100"><rect width="800" height="1100" fill="#F3F1E7"/><path d="M0 0 V1100 M40 0 V1100 M80 0 V1100 M120 0 V1100 M160 0 V1100 M200 0 V1100 M240 0 V1100 M280 0 V1100 M320 0 V1100 M360 0 V1100 M400 0 V1100 M440 0 V1100 M480 0 V1100 M520 0 V1100 M560 0 V1100 M600 0 V1100 M640 0 V1100 M680 0 V1100 M720 0 V1100 M760 0 V1100 M800 0 V1100 M0 0 H800 M0 40 H800 M0 80 H800 M0 120 H800 M0 160 H800 M0 200 H800 M0 240 H800 M0 280 H800 M0 320 H800 M0 360 H800 M0 400 H800 M0 440 H800 M0 480 H800 M0 520 H800 M0 560 H800 M0 600 H800 M0 640 H800 M0 680 H800 M0 720 H800 M0 760 H800 M0 800 H800 M0 840 H800 M0 880 H800 M0 920 H800 M0 960 H800 M0 1000 H800 M0 1040 H800 M0 1080 H800 " stroke="#B8CFE0" stroke-width="1.4" opacity=".8"/></svg>
