<svg xmlns="http://www.w3.org/2000/svg" viewBox="0 0 800 1100"><defs><linearGradient id="nwsky" x1="0" y1="0" x2="0" y2="1"><stop offset="0" stop-color="#0c1426"/><stop offset="1" stop-color="#13243a"/></linearGradient></defs><rect width="800" height="1100" fill="url(#nwsky)"/><circle cx="0" cy="11" r="1.8" fill="#fff" opacity="0.53"/><circle cx="595" cy="338" r="1.6" fill="#fff" opacity="0.40"/><circle cx="200" cy="267" r="2.0" fill="#fff" opacity="0.55"/><circle cx="212" cy="211" r="1.0" fill="#fff" opacity="0.56"/><circle cx="355" cy="381" r="2.0" fill="#fff" opacity="0.68"/><circle cx="264" cy="495" r="1.0" fill="#fff" opacity="0.33"/><circle cx="616" cy="82" r="0.7" fill="#fff" opacity="0.77"/><circle cx="147" cy="208" r="0.7" fill="#fff" opacity="0.57"/><circle cx="786" cy="349" r="1.9" fill="#fff" opacity="0.60"/><circle cx="504" cy="442" r="0.7" fill="#fff" opacity="0.37"/><circle cx="365" cy="136" r="1.4" fill="#fff" opacity="0.66"/><circle cx="400" cy="97" r="1.4" fill="#fff" opacity="0.66"/><circle cx="798" cy="102" r="1.9" fill="#fff" opacity="0.46"/><circle cx="431" cy="107" r="1.4" fill="#fff" opacity="0.59"/><circle cx="132" cy="433" r="0.5" fill="#fff" opacity="0.95"/><circle cx="448" cy="473" r="0.7" fill="#fff" opacity="0.66"/><circle cx="542" cy="451" r="1.1" fill="#fff" opacity="0.94"/><circle cx="662" cy="150" r="1.4" fill="#fff" opacity="0.27"/><circle cx="344" cy="233" r="1.2" fill="#fff" opacity="0.94"/><circle cx="125" cy="479" r="1.1" fill="#fff" opacity="0.43"/><circle cx="763" cy="205" r="1.4" fill="#fff" opacity="0.36"/><circle cx="765" cy="162" r="1.9" fill="#fff" opacity="0.82"/><circle cx="757" cy="484" r="0.6" fill="#fff" opacity="0.48"/><circle cx="600" cy="407" r="1.3" fill="#fff" opacity="0.78"/><circle cx="636" cy="154" r="1.6" fill="#fff" opacity="0.34"/><circle cx="154" cy="161" r="1.2" fill="#fff" opacity="0.71"/><circle cx="174" cy="296" r="1.2" fill="#fff" opacity="0.44"/><circle cx="728" cy="174" r="1.4" fill="#fff" opacity="0.31"/><circle cx="723" cy="91" r="1.9" fill="#fff" opacity="0.50"/><circle cx="653" cy="31" r="1.7" fill="#fff" opacity="0.89"/><circle cx="6" cy="92" r="1.0" fill="#fff" opacity="0.26"/><circle cx="528" cy="136" r="1.9" fill="#fff" opacity="0.78"/><circle cx="726" cy="218" r="1.8" fill="#fff" opacity="0.64"/><circle cx="706" cy="226" r="0.8" fill="#fff" opacity="0.52"/><circle cx="379" cy="302" r="0.7" fill="#fff" opacity="0.75"/><circle cx="336" cy="292" r="0.6" fill="#fff" opacity="0.72"/><circle cx="277" cy="233" r="0.6" fill="#fff" opacity="0.90"/><circle cx="768" cy="181" r="2.0" fill="#fff" opacity="0.35"/><circle cx="381" cy="387" r="1.5" fill="#fff" opacity="0.46"/><circle cx="435" cy="237" r="1.4" fill="#fff" opacity="0.60"/><circle cx="429" cy="83" r="1.4" fill="#fff" opacity="0.34"/><circle cx="647" cy="132" r="0.9" fill="#fff" opacity="0.29"/><circle cx="640" cy="310" r="2.1" fill="#fff" opacity="0.73"/><circle cx="100" cy="28" r="0.6" fill="#fff" opacity="0.37"/><circle cx="42" cy="187" r="1.4" fill="#fff" opacity="0.30"/><circle cx="482" cy="388" r="0.6" fill="#fff" opacity="0.42"/><circle cx="410" cy="154" r="0.9" fill="#fff" opacity="0.94"/><circle cx="609" cy="112" r="1.5" fill="#fff" opacity="0.31"/><circle cx="351" cy="469" r="1.8" fill="#fff" opacity="0.78"/><circle cx="148" cy="320" r="1.3" fill="#fff" opacity="0.70"/><circle cx="167" cy="259" r="1.7" fill="#fff" opacity="0.59"/><circle cx="220" cy="321" r="0.8" fill="#fff" opacity="0.90"/><circle cx="191" cy="494" r="0.7" fill="#fff" opacity="0.80"/><circle cx="451" cy="122" r="0.6" fill="#fff" opacity="0.84"/><circle cx="217" cy="473" r="1.2" fill="#fff" opacity="0.87"/><circle cx="573" cy="486" r="1.9" fill="#fff" opacity="0.57"/><circle cx="503" cy="202" r="0.7" fill="#fff" opacity="0.62"/><circle cx="604" cy="373" r="1.7" fill="#fff" opacity="0.33"/><circle cx="680" cy="390" r="1.4" fill="#fff" opacity="0.91"/><circle cx="270" cy="78" r="0.9" fill="#fff" opacity="0.92"/><circle cx="215" cy="266" r="1.0" fill="#fff" opacity="0.85"/><circle cx="120" cy="470" r="2.0" fill="#fff" opacity="0.39"/><circle cx="334" cy="9" r="0.6" fill="#fff" opacity="0.31"/><circle cx="449" cy="3" r="1.5" fill="#fff" opacity="0.50"/><circle cx="453" cy="187" r="1.0" fill="#fff" opacity="0.81"/><circle cx="146" cy="21" r="1.1" fill="#fff" opacity="0.31"/><circle cx="509" cy="163" r="0.8" fill="#fff" opacity="0.35"/><circle cx="20" cy="246" r="0.9" fill="#fff" opacity="0.81"/><circle cx="476" cy="326" r="1.3" fill="#fff" opacity="0.33"/><circle cx="727" cy="301" r="1.8" fill="#fff" opacity="0.90"/><circle cx="162" cy="60" r="2.1" fill="#fff" opacity="0.49"/><circle cx="129" cy="76" r="1.3" fill="#fff" opacity="0.54"/><circle cx="400" cy="255" r="0.5" fill="#fff" opacity="0.68"/><circle cx="644" cy="229" r="0.7" fill="#fff" opacity="0.29"/><circle cx="577" cy="418" r="1.9" fill="#fff" opacity="0.73"/><circle cx="742" cy="270" r="1.0" fill="#fff" opacity="0.75"/><circle cx="470" cy="111" r="1.3" fill="#fff" opacity="0.64"/><circle cx="226" cy="313" r="1.3" fill="#fff" opacity="0.31"/><circle cx="669" cy="105" r="1.5" fill="#fff" opacity="0.67"/><circle cx="129" cy="3" r="0.6" fill="#fff" opacity="0.36"/><circle cx="410" cy="63" r="0.8" fill="#fff" opacity="0.45"/><circle cx="318" cy="163" r="1.7" fill="#fff" opacity="0.41"/><circle cx="232" cy="326" r="1.5" fill="#fff" opacity="0.71"/><circle cx="726" cy="119" r="0.7" fill="#fff" opacity="0.53"/><circle cx="520" cy="374" r="1.5" fill="#fff" opacity="0.35"/><circle cx="405" cy="473" r="1.9" fill="#fff" opacity="0.34"/><circle cx="284" cy="265" r="1.5" fill="#fff" opacity="0.30"/><circle cx="667" cy="291" r="0.8" fill="#fff" opacity="0.58"/><circle cx="625" cy="479" r="1.6" fill="#fff" opacity="0.87"/><circle cx="271" cy="18" r="1.5" fill="#fff" opacity="0.78"/><circle cx="75" cy="240" r="0.7" fill="#fff" opacity="0.71"/><circle cx="54" cy="433" r="1.1" fill="#fff" opacity="0.28"/><circle cx="341" cy="276" r="1.6" fill="#fff" opacity="0.33"/><circle cx="714" cy="93" r="2.0" fill="#fff" opacity="0.94"/><circle cx="59" cy="113" r="1.6" fill="#fff" opacity="0.54"/><circle cx="129" cy="436" r="1.6" fill="#fff" opacity="0.69"/><circle cx="757" cy="210" r="0.6" fill="#fff" opacity="0.89"/><circle cx="116" cy="213" r="1.3" fill="#fff" opacity="0.89"/><circle cx="164" cy="313" r="1.9" fill="#fff" opacity="0.48"/><circle cx="494" cy="429" r="1.4" fill="#fff" opacity="0.51"/><circle cx="152" cy="29" r="0.9" fill="#fff" opacity="0.41"/><circle cx="261" cy="374" r="1.7" fill="#fff" opacity="0.82"/><circle cx="739" cy="353" r="2.0" fill="#fff" opacity="0.44"/><circle cx="460" cy="406" r="1.9" fill="#fff" opacity="0.58"/><circle cx="794" cy="433" r="1.5" fill="#fff" opacity="0.53"/><circle cx="7" cy="151" r="0.9" fill="#fff" opacity="0.59"/><circle cx="161" cy="440" r="1.0" fill="#fff" opacity="0.62"/><circle cx="694" cy="99" r="1.2" fill="#fff" opacity="0.80"/><circle cx="552" cy="350" r="1.6" fill="#fff" opacity="0.36"/><circle cx="610" cy="453" r="1.1" fill="#fff" opacity="0.58"/><circle cx="32" cy="78" r="0.9" fill="#fff" opacity="0.31"/><circle cx="418" cy="64" r="1.1" fill="#fff" opacity="0.70"/><circle cx="624" cy="399" r="0.7" fill="#fff" opacity="0.58"/><circle cx="586" cy="224" r="1.0" fill="#fff" opacity="0.93"/><circle cx="360" cy="321" r="1.9" fill="#fff" opacity="0.26"/><circle cx="393" cy="446" r="0.8" fill="#fff" opacity="0.46"/><circle cx="632" cy="366" r="0.7" fill="#fff" opacity="0.87"/><circle cx="432" cy="373" r="0.9" fill="#fff" opacity="0.36"/><circle cx="481" cy="210" r="1.0" fill="#fff" opacity="0.78"/><circle cx="134" cy="27" r="0.7" fill="#fff" opacity="0.80"/><circle cx="192" cy="180" r="2.0" fill="#fff" opacity="0.92"/><circle cx="744" cy="87" r="1.3" fill="#fff" opacity="0.79"/><circle cx="484" cy="71" r="1.3" fill="#fff" opacity="0.37"/><circle cx="414" cy="242" r="2.0" fill="#fff" opacity="0.67"/><circle cx="661" cy="472" r="1.6" fill="#fff" opacity="0.68"/><circle cx="35" cy="387" r="0.9" fill="#fff" opacity="0.34"/><circle cx="518" cy="213" r="1.6" fill="#fff" opacity="0.82"/><circle cx="572" cy="268" r="1.1" fill="#fff" opacity="0.93"/><circle cx="747" cy="241" r="1.3" fill="#fff" opacity="0.79"/><circle cx="608" cy="232" r="0.8" fill="#fff" opacity="0.47"/><circle cx="620" cy="170" r="64" fill="#E8E6DC" opacity=".92"/><circle cx="598" cy="152" r="14" fill="#C9C7BC" opacity=".6"/><circle cx="640" cy="190" r="10" fill="#C9C7BC" opacity=".5"/><path d="M-40 720 L3.4741026173457996 544.4365014133214 L46.9482052346916 720 Z" fill="#0e1c1a"/><path d="M-29.56621537183701 663.8196804522628 L3.4741026173457996 544.4365014133214 L36.5144206065286 663.8196804522628 Z" fill="#0e1c1a"/><path d="M47.5 720 L84.38630604214794 541.4168019576076 L121.27261208429589 720 Z" fill="#0e1c1a"/><path d="M56.3527134501155 662.8533766264344 L84.38630604214794 541.4168019576076 L112.41989863418038 662.8533766264344 Z" fill="#0e1c1a"/><path d="M135 720 L177.69594464809444 485.7589063238161 L220.39188929618888 720 Z" fill="#0e1c1a"/><path d="M145.24702671554266 645.0428500236212 L177.69594464809444 485.7589063238161 L210.14486258064625 645.0428500236212 Z" fill="#0e1c1a"/><path d="M222.5 720 L267.01069699635764 457.7876325569989 L311.5213939927152 720 Z" fill="#0e1c1a"/><path d="M233.18256727912583 636.0920424182397 L267.01069699635764 457.7876325569989 L300.8388267135894 636.0920424182397 Z" fill="#0e1c1a"/><path d="M310 720 L357.2096698141935 535.6587797639233 L404.4193396283869 720 Z" fill="#0e1c1a"/><path d="M321.33032075540643 661.0108095244555 L357.2096698141935 535.6587797639233 L393.0890188729805 661.0108095244555 Z" fill="#0e1c1a"/><path d="M397.5 720 L444.72208347275017 532.8504207301188 L491.94416694550034 720 Z" fill="#0e1c1a"/><path d="M408.83330003346003 660.112134633638 L444.72208347275017 532.8504207301188 L480.6108669120403 660.112134633638 Z" fill="#0e1c1a"/><path d="M485 720 L531.0138942218683 515.4950799096819 L577.0277884437367 720 Z" fill="#0e1c1a"/><path d="M496.0433346132484 654.5584255710982 L531.0138942218683 515.4950799096819 L565.9844538304883 654.5584255710982 Z" fill="#0e1c1a"/><path d="M572.5 720 L611.5319140181094 495.762276794185 L650.5638280362189 720 Z" fill="#0e1c1a"/><path d="M581.8676593643463 648.2439285741392 L611.5319140181094 495.762276794185 L641.1961686718726 648.2439285741392 Z" fill="#0e1c1a"/><path d="M660 720 L701.2120434903595 522.2443464385552 L742.4240869807192 720 Z" fill="#0e1c1a"/><path d="M669.8908904376863 656.7181908603377 L701.2120434903595 522.2443464385552 L732.5331965430329 656.7181908603377 Z" fill="#0e1c1a"/><path d="M747.5 720 L782.9881514337557 539.0731456475673 L818.4763028675114 720 Z" fill="#0e1c1a"/><path d="M756.0171563441014 662.1034066072216 L782.9881514337557 539.0731456475673 L809.95914652341 662.1034066072216 Z" fill="#0e1c1a"/><path d="M835 720 L875.2998523689107 486.0098390379035 L915.5997047378214 720 Z" fill="#0e1c1a"/><path d="M844.6719645685386 645.1231484921291 L875.2998523689107 486.0098390379035 L905.9277401692829 645.1231484921291 Z" fill="#0e1c1a"/><rect x="0" y="720" width="800" height="380" fill="#0e1c1a"/><path d="M-40 840 L-7.590837557143921 699.4740679857666 L24.81832488571216 840 Z" fill="#142a24"/><path d="M-32.22180101371454 795.0317017554453 L-7.590837557143921 699.4740679857666 L17.040125899426698 795.0317017554453 Z" fill="#142a24"/><path d="M30 840 L59.92721897267141 643.3223484937671 L89.85443794534282 840 Z" fill="#142a24"/><path d="M37.182532553441135 777.0631515180055 L59.92721897267141 643.3223484937671 L82.67190539190167 777.0631515180055 Z" fill="#142a24"/><path d="M100 840 L137.1828816715548 658.0416459022283 L174.36576334310962 840 Z" fill="#142a24"/><path d="M108.92389160117315 781.773326688713 L137.1828816715548 658.0416459022283 L165.4418717419365 781.773326688713 Z" fill="#142a24"/><path d="M170 840 L199.7099838632671 658.6017903865323 L229.41996772653422 840 Z" fill="#142a24"/><path d="M177.1303961271841 781.9525729236904 L199.7099838632671 658.6017903865323 L222.2895715993501 781.9525729236904 Z" fill="#142a24"/><path d="M240 840 L268.56235849324725 651.2815277796618 L297.1247169864945 840 Z" fill="#142a24"/><path d="M246.85496603837933 779.6100888894917 L268.56235849324725 651.2815277796618 L290.26975094811513 779.6100888894917 Z" fill="#142a24"/><path d="M310 840 L340.40727790790015 688.6603926814443 L370.81455581580036 840 Z" fill="#142a24"/><path d="M317.29774669789606 791.5713256580622 L340.40727790790015 688.6603926814443 L363.5168091179043 791.5713256580622 Z" fill="#142a24"/><path d="M380 840 L407.44630127374376 699.1287412490364 L434.8926025474875 840 Z" fill="#142a24"/><path d="M386.5871123056985 794.9211971996916 L407.44630127374376 699.1287412490364 L428.305490241789 794.9211971996916 Z" fill="#142a24"/><path d="M450 840 L487.4297864169021 627.3781250079061 L524.8595728338042 840 Z" fill="#142a24"/><path d="M458.9831487400565 771.9610000025299 L487.4297864169021 627.3781250079061 L515.8764240937477 771.9610000025299 Z" fill="#142a24"/><path d="M520 840 L552.1312405910023 638.7613900093181 L584.2624811820045 840 Z" fill="#142a24"/><path d="M527.7114977418405 775.6036448029818 L552.1312405910023 638.7613900093181 L576.550983440164 775.6036448029818 Z" fill="#142a24"/><path d="M590 840 L618.6222746715054 694.4682692710628 L647.2445493430107 840 Z" fill="#142a24"/><path d="M596.8693459211613 793.42984616674 L618.6222746715054 694.4682692710628 L640.3752034218494 793.42984616674 Z" fill="#142a24"/><path d="M660 840 L696.7798622109833 644.9425164353765 L733.5597244219667 840 Z" fill="#142a24"/><path d="M668.827166930636 777.5816052593206 L696.7798622109833 644.9425164353765 L724.7325574913307 777.5816052593206 Z" fill="#142a24"/><path d="M730 840 L763.2332112850776 640.7696000210799 L796.4664225701551 840 Z" fill="#142a24"/><path d="M737.9759707084186 776.2462720067456 L763.2332112850776 640.7696000210799 L788.4904518617366 776.2462720067456 Z" fill="#142a24"/><path d="M800 840 L833.8219048962098 637.5849578238954 L867.6438097924198 840 Z" fill="#142a24"/><path d="M808.1172571750903 775.2271865036465 L833.8219048962098 637.5849578238954 L859.5265526173295 775.2271865036465 Z" fill="#142a24"/><rect x="0" y="840" width="800" height="260" fill="#142a24"/><path d="M-40 960 L-15.968765766531586 847.5191478727008 L8.062468466936828 960 Z" fill="#1c3a30"/><path d="M-34.23250378396758 924.0061273192642 L-15.968765766531586 847.5191478727008 L2.294972250904408 924.0061273192642 Z" fill="#1c3a30"/><path d="M16 960 L40.27631448929958 823.6090043371585 L64.55262897859916 960 Z" fill="#1c3a30"/><path d="M21.826315477431898 916.3548813878907 L40.27631448929958 823.6090043371585 L58.72631350116726 916.3548813878907 Z" fill="#1c3a30"/><path d="M72 960 L95.36720609970726 818.7809333963231 L118.73441219941452 960 Z" fill="#1c3a30"/><path d="M77.60812946392974 914.8098986868234 L95.36720609970726 818.7809333963231 L113.12628273548478 914.8098986868234 Z" fill="#1c3a30"/><path d="M128 960 L155.8491281035585 837.5787797819723 L183.698256207117 960 Z" fill="#1c3a30"/><path d="M134.68379074485404 920.8252095302312 L155.8491281035585 837.5787797819723 L177.01446546226296 920.8252095302312 Z" fill="#1c3a30"/><path d="M184 960 L208.28558490811176 840.028825398548 L232.57116981622352 960 Z" fill="#1c3a30"/><path d="M189.8285403779468 921.6092241275353 L208.28558490811176 840.028825398548 L226.7426294382767 921.6092241275353 Z" fill="#1c3a30"/><path d="M240 960 L267.22951123008016 837.6323590230347 L294.4590224601603 960 Z" fill="#1c3a30"/><path d="M246.53508269521924 920.8423548873711 L267.22951123008016 837.6323590230347 L287.9239397649411 920.8423548873711 Z" fill="#1c3a30"/><path d="M296 960 L319.2651897359943 801.4891348562619 L342.53037947198857 960 Z" fill="#1c3a30"/><path d="M301.58364553663864 909.2765231540038 L319.2651897359943 801.4891348562619 L336.94673393535 909.2765231540038 Z" fill="#1c3a30"/><path d="M352 960 L378.10723329545334 827.3171428643712 L404.2144665909067 960 Z" fill="#1c3a30"/><path d="M358.2657359909088 917.5414857165988 L378.10723329545334 827.3171428643712 L397.94873059999793 917.5414857165988 Z" fill="#1c3a30"/><path d="M408 960 L433.0342771117735 828.5818422942338 L458.06855422354704 960 Z" fill="#1c3a30"/><path d="M414.0082265068256 917.9461895341548 L433.0342771117735 828.5818422942338 L452.06032771672136 917.9461895341548 Z" fill="#1c3a30"/><path d="M464 960 L487.08322255680486 842.9424176192574 L510.16644511360977 960 Z" fill="#1c3a30"/><path d="M469.53997341363316 922.5415736381624 L487.08322255680486 842.9424176192574 L504.6264716999766 922.5415736381624 Z" fill="#1c3a30"/><path d="M520 960 L544.2558740214705 797.6617293123443 L568.511748042941 960 Z" fill="#1c3a30"/><path d="M525.8214097651529 908.0517533799501 L544.2558740214705 797.6617293123443 L562.6903382777881 908.0517533799501 Z" fill="#1c3a30"/><path d="M576 960 L599.5275074606424 821.2750628764159 L623.0550149212847 960 Z" fill="#1c3a30"/><path d="M581.6466017905542 915.6080201204531 L599.5275074606424 821.2750628764159 L617.4084131307305 915.6080201204531 Z" fill="#1c3a30"/><path d="M632 960 L661.0943130479634 827.5062471532758 L690.1886260959267 960 Z" fill="#1c3a30"/><path d="M638.9826351315112 917.6019990890483 L661.0943130479634 827.5062471532758 L683.2059909644155 917.6019990890483 Z" fill="#1c3a30"/><path d="M688 960 L716.3073935007245 829.6771118555577 L744.614787001449 960 Z" fill="#1c3a30"/><path d="M694.7937744401739 918.2966757937785 L716.3073935007245 829.6771118555577 L737.8210125612752 918.2966757937785 Z" fill="#1c3a30"/><path d="M744 960 L766.8581418680297 824.999515075702 L789.7162837360596 960 Z" fill="#1c3a30"/><path d="M749.4859540483271 916.7998448242247 L766.8581418680297 824.999515075702 L784.2303296877325 916.7998448242247 Z" fill="#1c3a30"/><path d="M800 960 L827.8490392628354 789.8881747153998 L855.6980785256708 960 Z" fill="#1c3a30"/><path d="M806.6837694230805 905.564215908928 L827.8490392628354 789.8881747153998 L849.0143091025903 905.564215908928 Z" fill="#1c3a30"/><rect x="0" y="960" width="800" height="140" fill="#1c3a30"/><ellipse cx="240" cy="600" rx="9" ry="13" fill="#FFE48A" opacity=".85"/><ellipse cx="540" cy="660" rx="7" ry="10" fill="#FFE48A" opacity=".7"/><rect width="800" height="1100" fill="url(#nwsky)" opacity="0"/></svg>
