<svg xmlns="http://www.w3.org/2000/svg" viewBox="0 0 800 1100"><defs><linearGradient id="psky" x1="0" y1="0" x2="0" y2="1"><stop offset="0" stop-color="#FFE3F1"/><stop offset=".4" stop-color="#E9D8FF"/><stop offset=".75" stop-color="#D6ECFF"/><stop offset="1" stop-color="#FCEFD8"/></linearGradient></defs><rect width="800" height="1100" fill="url(#psky)"/><path d="M520 1100 a300 300 0 0 1 600 0" fill="none" stroke="#FF8FA3" stroke-width="26" opacity=".7"/><path d="M546 1100 a274 274 0 0 1 548 0" fill="none" stroke="#FFB86C" stroke-width="26" opacity=".7"/><path d="M572 1100 a248 248 0 0 1 496 0" fill="none" stroke="#FFE66D" stroke-width="26" opacity=".7"/><path d="M598 1100 a222 222 0 0 1 444 0" fill="none" stroke="#8FE39A" stroke-width="26" opacity=".7"/><path d="M624 1100 a196 196 0 0 1 392 0" fill="none" stroke="#6CC8FF" stroke-width="26" opacity=".7"/><path d="M650 1100 a170 170 0 0 1 340 0" fill="none" stroke="#B79CFF" stroke-width="26" opacity=".7"/><g opacity=".92"><ellipse cx="140" cy="300" rx="70" ry="42" fill="#fff"/><ellipse cx="190" cy="308" rx="50" ry="34" fill="#fff"/><ellipse cx="94" cy="310" rx="42" ry="30" fill="#fff"/></g><g opacity=".92"><ellipse cx="620" cy="220" rx="56" ry="33.6" fill="#fff"/><ellipse cx="660" cy="226.4" rx="40" ry="27.200000000000003" fill="#fff"/><ellipse cx="583.2" cy="228" rx="33.6" ry="24" fill="#fff"/></g><g opacity=".92"><ellipse cx="300" cy="720" rx="63" ry="37.800000000000004" fill="#fff"/><ellipse cx="345" cy="727.2" rx="45" ry="30.6" fill="#fff"/><ellipse cx="258.6" cy="729" rx="37.800000000000004" ry="27" fill="#fff"/></g><g opacity=".92"><ellipse cx="560" cy="880" rx="49" ry="29.4" fill="#fff"/><ellipse cx="595" cy="885.6" rx="35" ry="23.799999999999997" fill="#fff"/><ellipse cx="527.8" cy="887" rx="29.4" ry="21" fill="#fff"/></g><path d="M23 13.668554181078708 L25.239546996541108 20.760453003458892 L32.331445818921296 23 L25.239546996541108 25.239546996541108 L23 32.331445818921296 L20.760453003458892 25.239546996541108 L13.668554181078708 23 L20.760453003458892 20.760453003458892 Z" fill="#FFB7E1" opacity="0.82"/><path d="M416 121.76098565699579 L419.417363442321 132.582636557679 L430.2390143430042 136 L419.417363442321 139.417363442321 L416 150.23901434300421 L412.582636557679 139.417363442321 L401.7609856569958 136 L412.582636557679 132.582636557679 Z" fill="#fff" opacity="0.85"/><path d="M661 304.77079489164555 L662.7350092260051 310.26499077399495 L668.2292051083544 312 L662.7350092260051 313.73500922600505 L661 319.22920510835445 L659.2649907739949 313.73500922600505 L653.7707948916456 312 L659.2649907739949 310.26499077399495 Z" fill="#fff" opacity="0.82"/><path d="M767 528.730079833758 L768.984780839898 535.015219160102 L775.269920166242 537 L768.984780839898 538.984780839898 L767 545.269920166242 L765.015219160102 538.984780839898 L758.730079833758 537 L765.015219160102 535.015219160102 Z" fill="#B79CFF" opacity="0.59"/><path d="M555 172.41555857351773 L558.7402659423558 184.25973405764427 L570.5844414264823 188 L558.7402659423558 191.74026594235573 L555 203.58444142648227 L551.2597340576442 191.74026594235573 L539.4155585735177 188 L551.2597340576442 184.25973405764427 Z" fill="#FFE66D" opacity="0.80"/><path d="M358 45.89971108962769 L361.86406933848934 58.13593066151064 L374.10028891037234 62 L361.86406933848934 65.86406933848936 L358 78.10028891037231 L354.13593066151066 65.86406933848936 L341.89971108962766 62 L354.13593066151066 58.13593066151064 Z" fill="#B79CFF" opacity="0.61"/><path d="M193 28.063062196626824 L196.10486507280956 37.89513492719044 L205.93693780337318 41 L196.10486507280956 44.10486507280956 L193 53.936937803373176 L189.89513492719044 44.10486507280956 L180.06306219662682 41 L189.89513492719044 37.89513492719044 Z" fill="#FFE66D" opacity="0.76"/><path d="M149 126.30616356353562 L152.52652074475145 137.47347925524855 L163.69383643646438 141 L152.52652074475145 144.52652074475145 L149 155.69383643646438 L145.47347925524855 144.52652074475145 L134.30616356353562 141 L145.47347925524855 137.47347925524855 Z" fill="#fff" opacity="0.86"/><path d="M101 348.0817308347122 L102.42038459966908 352.5796154003309 L106.91826916528785 354 L102.42038459966908 355.4203845996691 L101 359.9182691652878 L99.57961540033092 355.4203845996691 L95.08173083471215 354 L99.57961540033092 352.5796154003309 Z" fill="#fff" opacity="0.79"/><path d="M278 604.8505236878295 L279.2358743149209 608.7641256850791 L283.1494763121705 610 L279.2358743149209 611.2358743149209 L278 615.1494763121705 L276.7641256850791 611.2358743149209 L272.8505236878295 610 L276.7641256850791 608.7641256850791 Z" fill="#FFE66D" opacity="0.63"/><path d="M327 152.42227169890992 L330.97865479226164 165.0213452077384 L343.5777283010901 169 L330.97865479226164 172.9786547922616 L327 185.57772830109008 L323.02134520773836 172.9786547922616 L310.4222716989099 169 L323.02134520773836 165.0213452077384 Z" fill="#FFB7E1" opacity="0.71"/><path d="M332 30.60913155489095 L333.7738084268262 36.22619157317383 L339.39086844510905 38 L333.7738084268262 39.77380842682617 L332 45.39086844510905 L330.2261915731738 39.77380842682617 L324.60913155489095 38 L330.2261915731738 36.22619157317383 Z" fill="#FFB7E1" opacity="0.80"/><path d="M82 18.495522140290365 L84.76107468633032 27.23892531366969 L93.50447785970964 30 L84.76107468633032 32.76107468633031 L82 41.50447785970964 L79.23892531366968 32.76107468633031 L70.49552214029036 30 L79.23892531366968 27.23892531366969 Z" fill="#fff" opacity="0.78"/><path d="M139 762.7189200984868 L141.22745917636317 769.7725408236369 L148.2810799015132 772 L141.22745917636317 774.2274591763631 L139 781.2810799015132 L136.77254082363683 774.2274591763631 L129.7189200984868 772 L136.77254082363683 769.7725408236369 Z" fill="#fff" opacity="0.92"/><path d="M698 215.6352100812994 L701.4475495804882 226.55245041951184 L712.3647899187006 230 L701.4475495804882 233.44754958048816 L698 244.3647899187006 L694.5524504195118 233.44754958048816 L683.6352100812994 230 L694.5524504195118 226.55245041951184 Z" fill="#fff" opacity="0.55"/><path d="M603 263.4406684722941 L606.4942395666494 274.5057604333506 L617.5593315277059 278 L606.4942395666494 281.4942395666494 L603 292.5593315277059 L599.5057604333506 281.4942395666494 L588.4406684722941 278 L599.5057604333506 274.5057604333506 Z" fill="#FFB7E1" opacity="0.74"/><path d="M353 617.3211095194896 L356.5229337153225 628.4770662846776 L367.67889048051035 632 L356.5229337153225 635.5229337153224 L353 646.6788904805104 L349.4770662846775 635.5229337153224 L338.32110951948965 632 L349.4770662846775 628.4770662846776 Z" fill="#fff" opacity="0.90"/><path d="M321 647.7560903508012 L323.9385383158077 657.0614616841923 L333.2439096491988 660 L323.9385383158077 662.9385383158077 L321 672.2439096491988 L318.0614616841923 662.9385383158077 L308.7560903508012 660 L318.0614616841923 657.0614616841923 Z" fill="#FFB7E1" opacity="0.61"/><path d="M341 14.238448095618956 L344.54277245705146 25.45722754294855 L355.76155190438107 29 L344.54277245705146 32.54277245705145 L341 43.761551904381044 L337.45722754294854 32.54277245705145 L326.23844809561893 29 L337.45722754294854 25.45722754294855 Z" fill="#B79CFF" opacity="0.58"/><path d="M415 761.539141248697 L416.3106061003127 765.6893938996873 L420.46085875130296 767 L416.3106061003127 768.3106061003127 L415 772.460858751303 L413.6893938996873 768.3106061003127 L409.53914124869704 767 L413.6893938996873 765.6893938996873 Z" fill="#FFE66D" opacity="0.77"/><path d="M174 745.1656058482665 L176.360254596416 752.639745403584 L183.83439415173345 755 L176.360254596416 757.360254596416 L174 764.8343941517335 L171.639745403584 757.360254596416 L164.16560584826655 755 L171.639745403584 752.639745403584 Z" fill="#B79CFF" opacity="0.68"/><path d="M223 365.8619958385182 L225.19312099875563 372.8068790012444 L232.13800416148175 375 L225.19312099875563 377.1931209987556 L223 384.1380041614818 L220.80687900124437 377.1931209987556 L213.86199583851825 375 L220.80687900124437 372.8068790012444 Z" fill="#FFB7E1" opacity="0.81"/><path d="M191 325.47157067734355 L194.48682303743755 336.51317696256245 L205.52842932265645 340 L194.48682303743755 343.48682303743755 L191 354.52842932265645 L187.51317696256245 343.48682303743755 L176.47157067734355 340 L187.51317696256245 336.51317696256245 Z" fill="#FFE66D" opacity="0.87"/><path d="M272 725.0749111450626 L273.42202132518497 729.577978674815 L277.92508885493737 731 L273.42202132518497 732.422021325185 L272 736.9250888549374 L270.57797867481503 732.422021325185 L266.07491114506263 731 L270.57797867481503 729.577978674815 Z" fill="#FFB7E1" opacity="0.70"/><path d="M399 427.022657634701 L402.11456216767175 436.88543783232825 L411.977342365299 440 L402.11456216767175 443.11456216767175 L399 452.977342365299 L395.88543783232825 443.11456216767175 L386.022657634701 440 L395.88543783232825 436.88543783232825 Z" fill="#B79CFF" opacity="0.92"/><path d="M741 577.194040176549 L742.6334303576282 582.3665696423718 L747.805959823451 584 L742.6334303576282 585.6334303576282 L741 590.805959823451 L739.3665696423718 585.6334303576282 L734.194040176549 584 L739.3665696423718 582.3665696423718 Z" fill="#FFE66D" opacity="0.64"/><path d="M232 955.7685032555687 L234.45555921866352 963.5444407813364 L242.23149674443133 966 L234.45555921866352 968.4555592186636 L232 976.2314967444313 L229.54444078133648 968.4555592186636 L221.76850325556867 966 L229.54444078133648 963.5444407813364 Z" fill="#fff" opacity="0.60"/><path d="M162 381.4301979585691 L165.7367524899434 393.2632475100566 L177.56980204143088 397 L165.7367524899434 400.7367524899434 L162 412.5698020414309 L158.2632475100566 400.7367524899434 L146.43019795856912 397 L158.2632475100566 393.2632475100566 Z" fill="#B79CFF" opacity="0.67"/><path d="M407 274.06671687963734 L410.10398794888704 283.89601205111296 L419.93328312036266 287 L410.10398794888704 290.10398794888704 L407 299.93328312036266 L403.89601205111296 290.10398794888704 L394.06671687963734 287 L403.89601205111296 283.89601205111296 Z" fill="#fff" opacity="0.84"/><path d="M677 760.7747865849058 L679.6940512196227 769.3059487803773 L688.2252134150942 772 L679.6940512196227 774.6940512196227 L677 783.2252134150942 L674.3059487803773 774.6940512196227 L665.7747865849058 772 L674.3059487803773 769.3059487803773 Z" fill="#B79CFF" opacity="0.60"/><path d="M428 435.6348317398852 L431.92764038242757 448.07235961757243 L444.3651682601148 452 L431.92764038242757 455.92764038242757 L428 468.3651682601148 L424.07235961757243 455.92764038242757 L411.6348317398852 452 L424.07235961757243 448.07235961757243 Z" fill="#B79CFF" opacity="0.62"/><path d="M205 353.65008135822137 L207.48398047402685 361.51601952597315 L215.3499186417786 364 L207.48398047402685 366.48398047402685 L205 374.34991864177863 L202.51601952597315 366.48398047402685 L194.6500813582214 364 L202.51601952597315 361.51601952597315 Z" fill="#fff" opacity="0.83"/><path d="M439 458.16762972398084 L440.3997688662446 462.6002311337554 L444.83237027601916 464 L440.3997688662446 465.3997688662446 L439 469.83237027601916 L437.6002311337554 465.3997688662446 L433.16762972398084 464 L437.6002311337554 462.6002311337554 Z" fill="#B79CFF" opacity="0.85"/><path d="M345 753.1399261048715 L348.56641773483085 764.4335822651692 L359.8600738951285 768 L348.56641773483085 771.5664177348308 L345 782.8600738951285 L341.43358226516915 771.5664177348308 L330.1399261048715 768 L341.43358226516915 764.4335822651692 Z" fill="#B79CFF" opacity="0.84"/></svg>
