<svg xmlns="http://www.w3.org/2000/svg" viewBox="0 0 800 1100"><rect width="800" height="1100" fill="#E8D9B0"/><circle cx="0" cy="1012" r="31" fill="#D8C493" opacity="0.13"/><circle cx="583" cy="585" r="33" fill="#D8C493" opacity="0.27"/><circle cx="604" cy="597" r="55" fill="#D8C493" opacity="0.24"/><circle cx="653" cy="266" r="36" fill="#D8C493" opacity="0.26"/><circle cx="558" cy="59" r="55" fill="#D8C493" opacity="0.20"/><circle cx="737" cy="888" r="21" fill="#D8C493" opacity="0.21"/><circle cx="738" cy="757" r="52" fill="#D8C493" opacity="0.22"/><circle cx="729" cy="999" r="36" fill="#D8C493" opacity="0.16"/><circle cx="669" cy="365" r="23" fill="#D8C493" opacity="0.15"/><circle cx="342" cy="324" r="70" fill="#D8C493" opacity="0.22"/><circle cx="583" cy="965" r="17" fill="#D8C493" opacity="0.15"/><circle cx="448" cy="559" r="39" fill="#D8C493" opacity="0.13"/><circle cx="727" cy="60" r="35" fill="#D8C493" opacity="0.17"/><circle cx="531" cy="1016" r="44" fill="#D8C493" opacity="0.12"/><circle cx="324" cy="311" r="35" fill="#D8C493" opacity="0.19"/><circle cx="266" cy="584" r="50" fill="#D8C493" opacity="0.14"/><circle cx="725" cy="503" r="65" fill="#D8C493" opacity="0.24"/><circle cx="507" cy="567" r="44" fill="#D8C493" opacity="0.25"/><circle cx="751" cy="436" r="56" fill="#D8C493" opacity="0.14"/><circle cx="469" cy="385" r="33" fill="#D8C493" opacity="0.18"/><circle cx="635" cy="965" r="20" fill="#D8C493" opacity="0.28"/><circle cx="62" cy="447" r="23" fill="#D8C493" opacity="0.10"/><circle cx="796" cy="242" r="51" fill="#D8C493" opacity="0.12"/><circle cx="365" cy="652" r="22" fill="#D8C493" opacity="0.31"/><circle cx="707" cy="979" r="67" fill="#D8C493" opacity="0.31"/><circle cx="608" cy="302" r="14" fill="#D8C493" opacity="0.14"/><g stroke="#A88D52" stroke-width="3" fill="none" opacity=".75"><path d="M120 180 q180 60 140 220 q-40 140 120 180 q200 40 160 240" stroke-dasharray="12 9"/><path d="M560 140 q120 80 60 200"/><circle cx="120" cy="180" r="10"/><circle cx="540" cy="920" r="12"/></g><path d="M520 905 l40 30 m0 -30 l-40 30" stroke="#9c3a22" stroke-width="7"/><g fill="#8A7A5C" opacity=".8"><path d="M200 620 l24 -38 24 38 Z"/><path d="M240 640 l20 -32 20 32 Z"/><path d="M168 648 l20 -30 20 30 Z"/></g><g fill="none" stroke="#6E8CA8" stroke-width="4" opacity=".7"><path d="M580 420 q16 -14 32 0 q16 14 32 0"/><path d="M600 460 q16 -14 32 0"/></g><circle cx="660" cy="180" r="52" fill="none" stroke="#A88D52" stroke-width="3"/><path d="M660 132 v96 M612 180 h96 M626 146 l68 68 M694 146 l-68 68" stroke="#A88D52" stroke-width="2" opacity=".7"/><text x="400" y="1050" font-family="Georgia" font-style="italic" font-size="30" text-anchor="middle" fill="#A88D52">here be lockers</text></svg>
