<svg xmlns="http://www.w3.org/2000/svg" viewBox="0 0 800 1100"><rect width="800" height="1100" fill="#3a3f4a"/><circle cx="0" cy="1012" r="31" fill="#333842" opacity="0.13"/><circle cx="583" cy="585" r="33" fill="#333842" opacity="0.27"/><circle cx="604" cy="597" r="55" fill="#333842" opacity="0.24"/><circle cx="653" cy="266" r="36" fill="#333842" opacity="0.26"/><circle cx="558" cy="59" r="55" fill="#333842" opacity="0.20"/><circle cx="737" cy="888" r="21" fill="#333842" opacity="0.21"/><circle cx="738" cy="757" r="52" fill="#333842" opacity="0.22"/><circle cx="729" cy="999" r="36" fill="#333842" opacity="0.16"/><circle cx="669" cy="365" r="23" fill="#333842" opacity="0.15"/><circle cx="342" cy="324" r="70" fill="#333842" opacity="0.22"/><circle cx="583" cy="965" r="17" fill="#333842" opacity="0.15"/><circle cx="448" cy="559" r="39" fill="#333842" opacity="0.13"/><circle cx="727" cy="60" r="35" fill="#333842" opacity="0.17"/><circle cx="531" cy="1016" r="44" fill="#333842" opacity="0.12"/><circle cx="324" cy="311" r="35" fill="#333842" opacity="0.19"/><circle cx="266" cy="584" r="50" fill="#333842" opacity="0.14"/><circle cx="725" cy="503" r="65" fill="#333842" opacity="0.24"/><circle cx="507" cy="567" r="44" fill="#333842" opacity="0.25"/><circle cx="751" cy="436" r="56" fill="#333842" opacity="0.14"/><circle cx="469" cy="385" r="33" fill="#333842" opacity="0.18"/><circle cx="635" cy="965" r="20" fill="#333842" opacity="0.28"/><circle cx="62" cy="447" r="23" fill="#333842" opacity="0.10"/><circle cx="796" cy="242" r="51" fill="#333842" opacity="0.12"/><circle cx="365" cy="652" r="22" fill="#333842" opacity="0.31"/><circle cx="707" cy="979" r="67" fill="#333842" opacity="0.31"/><circle cx="608" cy="302" r="14" fill="#333842" opacity="0.14"/><g transform="rotate(-3 170 240)"><rect x="60" y="90" width="220" height="300" fill="#E8485C" stroke="#0006" stroke-width="2"/><text x="170" y="216" font-family="Arial" font-weight="bold" font-size="31.428571428571427" text-anchor="middle" fill="#fff" opacity=".92">THE</text><text x="170" y="270" font-family="Arial" font-weight="bold" font-size="27.5" text-anchor="middle" fill="#fff" opacity=".8">BELL CURVES</text><circle cx="170" cy="98" r="5" fill="#cfd4dc"/></g><g transform="rotate(2 430 275)"><rect x="330" y="140" width="200" height="270" fill="#16324F" stroke="#0006" stroke-width="2"/><text x="430" y="253.39999999999998" font-family="Arial" font-weight="bold" font-size="28.571428571428573" text-anchor="middle" fill="#fff" opacity=".92">midnight</text><text x="430" y="302" font-family="Arial" font-weight="bold" font-size="25" text-anchor="middle" fill="#fff" opacity=".8">homeroom</text><circle cx="430" cy="148" r="5" fill="#cfd4dc"/></g><g transform="rotate(-2 660 205)"><rect x="570" y="80" width="180" height="250" fill="#E8B23A" stroke="#0006" stroke-width="2"/><text x="660" y="185" font-family="Arial" font-weight="bold" font-size="25.714285714285715" text-anchor="middle" fill="#fff" opacity=".92">LATE BUS</text><text x="660" y="230" font-family="Arial" font-weight="bold" font-size="22.5" text-anchor="middle" fill="#fff" opacity=".8">WORLD TOUR</text><circle cx="660" cy="88" r="5" fill="#cfd4dc"/></g><g transform="rotate(2.5 200 610)"><rect x="100" y="470" width="200" height="280" fill="#2F5243" stroke="#0006" stroke-width="2"/><text x="200" y="587.6" font-family="Arial" font-weight="bold" font-size="28.571428571428573" text-anchor="middle" fill="#fff" opacity=".92">study</text><text x="200" y="638" font-family="Arial" font-weight="bold" font-size="25" text-anchor="middle" fill="#fff" opacity=".8">hall stars</text><circle cx="200" cy="478" r="5" fill="#cfd4dc"/></g><g transform="rotate(-1.5 475 650)"><rect x="360" y="500" width="230" height="300" fill="#4D3A66" stroke="#0006" stroke-width="2"/><text x="475" y="626" font-family="Arial" font-weight="bold" font-size="32.857142857142854" text-anchor="middle" fill="#fff" opacity=".92">GLORP</text><text x="475" y="680" font-family="Arial" font-weight="bold" font-size="28.75" text-anchor="middle" fill="#fff" opacity=".8">LIVE</text><circle cx="475" cy="508" r="5" fill="#cfd4dc"/></g><g transform="rotate(3 655 560)"><rect x="560" y="430" width="190" height="260" fill="#23262E" stroke="#0006" stroke-width="2"/><text x="655" y="539.2" font-family="Arial" font-weight="bold" font-size="27.142857142857142" text-anchor="middle" fill="#fff" opacity=".92">NO</text><text x="655" y="586" font-family="Arial" font-weight="bold" font-size="23.75" text-anchor="middle" fill="#fff" opacity=".8">SKIPS</text><circle cx="655" cy="438" r="5" fill="#cfd4dc"/></g><g transform="rotate(-2 310 940)"><rect x="200" y="820" width="220" height="240" fill="#7A2E2E" stroke="#0006" stroke-width="2"/><text x="310" y="920.8" font-family="Arial" font-weight="bold" font-size="31.428571428571427" text-anchor="middle" fill="#fff" opacity=".92">DEMI &</text><text x="310" y="964" font-family="Arial" font-weight="bold" font-size="27.5" text-anchor="middle" fill="#fff" opacity=".8">THE NOTES</text><circle cx="310" cy="828" r="5" fill="#cfd4dc"/></g><g transform="rotate(1.5 585 930)"><rect x="480" y="800" width="210" height="260" fill="#33507A" stroke="#0006" stroke-width="2"/><text x="585" y="909.2" font-family="Arial" font-weight="bold" font-size="30" text-anchor="middle" fill="#fff" opacity=".92">vibes</text><text x="585" y="956" font-family="Arial" font-weight="bold" font-size="26.25" text-anchor="middle" fill="#fff" opacity=".8">fest</text><circle cx="585" cy="808" r="5" fill="#cfd4dc"/></g></svg>
