<svg xmlns="http://www.w3.org/2000/svg" viewBox="0 0 100 100"><rect x="14" y="16" width="72" height="68" rx="6" fill="#FDFBF4" stroke="#D8D2BF" stroke-width="2"/><rect x="14" y="16" width="72" height="16" rx="6" fill="#3A7CC2"/><rect x="14" y="26" width="72" height="6" fill="#3A7CC2"/><rect x="26" y="11" width="5" height="10" rx="2.5" fill="#8a917e"/><rect x="69" y="11" width="5" height="10" rx="2.5" fill="#8a917e"/><rect x="22" y="40" width="11" height="10" rx="3" fill="#3BD27A"/><path d="M24.5 45 l2.2 2.4 4-4.8" stroke="#fff" stroke-width="1.8" fill="none" stroke-linecap="round"/><rect x="37" y="40" width="11" height="10" rx="3" fill="none" stroke="#C9C2AC" stroke-width="1.5"/><rect x="52" y="40" width="11" height="10" rx="3" fill="none" stroke="#C9C2AC" stroke-width="1.5"/><rect x="67" y="40" width="11" height="10" rx="3" fill="#3BD27A"/><path d="M69.5 45 l2.2 2.4 4-4.8" stroke="#fff" stroke-width="1.8" fill="none" stroke-linecap="round"/><rect x="22" y="54" width="11" height="10" rx="3" fill="none" stroke="#C9C2AC" stroke-width="1.5"/><rect x="37" y="54" width="11" height="10" rx="3" fill="none" stroke="#C9C2AC" stroke-width="1.5"/><rect x="52" y="54" width="11" height="10" rx="3" fill="#3BD27A"/><path d="M54.5 59 l2.2 2.4 4-4.8" stroke="#fff" stroke-width="1.8" fill="none" stroke-linecap="round"/><rect x="67" y="54" width="11" height="10" rx="3" fill="none" stroke="#C9C2AC" stroke-width="1.5"/><rect x="22" y="68" width="11" height="10" rx="3" fill="none" stroke="#C9C2AC" stroke-width="1.5"/><rect x="37" y="68" width="11" height="10" rx="3" fill="#3BD27A"/><path d="M39.5 73 l2.2 2.4 4-4.8" stroke="#fff" stroke-width="1.8" fill="none" stroke-linecap="round"/><rect x="52" y="68" width="11" height="10" rx="3" fill="none" stroke="#C9C2AC" stroke-width="1.5"/><rect x="67" y="68" width="11" height="10" rx="3" fill="none" stroke="#C9C2AC" stroke-width="1.5"/></svg>
