<svg xmlns="http://www.w3.org/2000/svg" viewBox="0 0 100 100"><defs><linearGradient id="foil" x1="0" y1="0" x2="1" y2="1"><stop offset="0" stop-color="#E8D48B"/><stop offset=".5" stop-color="#C9A227"/><stop offset="1" stop-color="#F4E3A1"/></linearGradient><linearGradient id="holo" x1="0" y1="0" x2="1" y2="1"><stop offset="0" stop-color="#9BE7FF"/><stop offset=".5" stop-color="#C6A4FF"/><stop offset="1" stop-color="#FFB7E1"/></linearGradient></defs><circle cx="50" cy="50" r="44" fill="#fff"/><circle cx="50" cy="50" r="44" fill="none" stroke="#00000018" stroke-width="2"/><path d="M50 14 Q66 36 58 48 Q70 44 70 60 Q70 80 50 84 Q30 80 30 60 Q30 48 40 40 Q36 56 46 56 Q42 34 50 14 Z" fill="#F2742C"/><path d="M50 44 Q58 56 54 66 Q52 74 50 76 Q42 70 44 60 Q46 52 50 44 Z" fill="#FFD93B"/></svg>
