<svg xmlns="http://www.w3.org/2000/svg" viewBox="0 0 100 100"><defs><linearGradient id="foil" x1="0" y1="0" x2="1" y2="1"><stop offset="0" stop-color="#E8D48B"/><stop offset=".5" stop-color="#C9A227"/><stop offset="1" stop-color="#F4E3A1"/></linearGradient><linearGradient id="holo" x1="0" y1="0" x2="1" y2="1"><stop offset="0" stop-color="#9BE7FF"/><stop offset=".5" stop-color="#C6A4FF"/><stop offset="1" stop-color="#FFB7E1"/></linearGradient></defs><circle cx="50" cy="50" r="44" fill="#fff"/><circle cx="50" cy="50" r="44" fill="none" stroke="#00000018" stroke-width="2"/><defs><clipPath id="rbclip"><path d="M14 70 a36 36 0 0 1 72 0 l-12 0 a24 24 0 0 0 -48 0 Z"/></clipPath></defs><path d="M14 70 a36 36 0 0 1 72 0 l-6 0 a30 30 0 0 0 -60 0 Z" fill="#FF8FA3"/><path d="M20 70 a30 30 0 0 1 60 0 l-6 0 a24 24 0 0 0 -48 0 Z" fill="#FFB86C"/><path d="M26 70 a24 24 0 0 1 48 0 l-6 0 a18 18 0 0 0 -36 0 Z" fill="#FFE66D"/><path d="M32 70 a18 18 0 0 1 36 0 l-6 0 a12 12 0 0 0 -24 0 Z" fill="#8FE39A"/><path d="M38 70 a12 12 0 0 1 24 0 l-6 0 a6 6 0 0 0 -12 0 Z" fill="#6CC8FF"/><path d="M44 70 a6 6 0 0 1 12 0 l-6 0 a0 0 0 0 0 0 0 Z" fill="#B79CFF"/><ellipse cx="20" cy="72" rx="9" ry="6" fill="#fff"/><ellipse cx="80" cy="72" rx="9" ry="6" fill="#fff"/><circle cx="74" cy="30" r="3" fill="#FFE66D"/><circle cx="26" cy="28" r="2.4" fill="#FFB7E1"/></svg>
