<svg xmlns="http://www.w3.org/2000/svg" viewBox="0 0 100 100"><defs><linearGradient id="foil" x1="0" y1="0" x2="1" y2="1"><stop offset="0" stop-color="#E8D48B"/><stop offset=".5" stop-color="#C9A227"/><stop offset="1" stop-color="#F4E3A1"/></linearGradient><linearGradient id="holo" x1="0" y1="0" x2="1" y2="1"><stop offset="0" stop-color="#9BE7FF"/><stop offset=".5" stop-color="#C6A4FF"/><stop offset="1" stop-color="#FFB7E1"/></linearGradient></defs><circle cx="50" cy="50" r="44" fill="#fff"/><circle cx="50" cy="50" r="44" fill="none" stroke="#00000018" stroke-width="2"/><g fill="url(#holo)"><ellipse cx="50" cy="60" rx="20" ry="22"/><circle cx="50" cy="32" r="12"/><circle cx="40" cy="22" r="4"/><circle cx="60" cy="22" r="4"/></g><path d="M44 28 q6 -5 12 0 l-2 7 q-4 3 -8 0 Z" fill="#F4F0E4"/><circle cx="46" cy="31" r="2" fill="#1c2030"/><circle cx="54" cy="31" r="2" fill="#1c2030"/><ellipse cx="50" cy="36" rx="2.4" ry="1.8" fill="#1c2030"/><path d="M36 50 h28 l-2 8 h-24 Z" fill="#6E2424"/><text x="50" y="57" font-family="Georgia" font-weight="bold" font-size="8" text-anchor="middle" fill="#F4E8C8">W</text><path d="M30 78 q-4 6 2 8 M70 78 q4 6 -2 8" stroke="#C6A4FF" stroke-width="3.4" fill="none" stroke-linecap="round"/></svg>
