<svg xmlns="http://www.w3.org/2000/svg" viewBox="0 0 100 100"><defs><linearGradient id="foil" x1="0" y1="0" x2="1" y2="1"><stop offset="0" stop-color="#E8D48B"/><stop offset=".5" stop-color="#C9A227"/><stop offset="1" stop-color="#F4E3A1"/></linearGradient><linearGradient id="holo" x1="0" y1="0" x2="1" y2="1"><stop offset="0" stop-color="#9BE7FF"/><stop offset=".5" stop-color="#C6A4FF"/><stop offset="1" stop-color="#FFB7E1"/></linearGradient></defs><circle cx="50" cy="50" r="44" fill="#fff"/><circle cx="50" cy="50" r="44" fill="none" stroke="#00000018" stroke-width="2"/><defs><linearGradient id="helg" x1="0" y1="0" x2="0" y2="1"><stop offset="0" stop-color="#4E586E"/><stop offset="1" stop-color="#343C4E"/></linearGradient></defs><path d="M22 56 a28 28 0 0 1 56 0 l0 6 q-28 8 -56 0 Z" fill="url(#helg)" stroke="#1E2330" stroke-width="2.5"/><ellipse cx="38" cy="40" rx="9" ry="6" fill="#fff" opacity=".22" transform="rotate(-18 38 40)"/><path d="M30 47 l10 -5 M64 38 l6 7" stroke="#1E2330" stroke-width="2" opacity=".7"/><rect x="30" y="60" width="40" height="7" rx="3.5" fill="#E8B23A"/><path d="M44 67 q6 10 12 0" stroke="#1E2330" stroke-width="3" fill="none"/><circle cx="55" cy="50" r="4" fill="#E8485C" opacity=".85"/><rect x="62" y="52" width="9" height="6" rx="2" fill="#3BA776" transform="rotate(12 66 55)"/></svg>
