<svg xmlns="http://www.w3.org/2000/svg" viewBox="0 0 100 100"><defs><linearGradient id="foil" x1="0" y1="0" x2="1" y2="1"><stop offset="0" stop-color="#E8D48B"/><stop offset=".5" stop-color="#C9A227"/><stop offset="1" stop-color="#F4E3A1"/></linearGradient><linearGradient id="holo" x1="0" y1="0" x2="1" y2="1"><stop offset="0" stop-color="#9BE7FF"/><stop offset=".5" stop-color="#C6A4FF"/><stop offset="1" stop-color="#FFB7E1"/></linearGradient></defs><circle cx="50" cy="50" r="44" fill="#fff"/><circle cx="50" cy="50" r="44" fill="none" stroke="#00000018" stroke-width="2"/><rect x="32" y="18" width="8" height="8" fill="url(#holo)"/><rect x="40" y="18" width="8" height="8" fill="url(#holo)"/><rect x="48" y="18" width="8" height="8" fill="url(#holo)"/><rect x="56" y="18" width="8" height="8" fill="url(#holo)"/><rect x="24" y="26" width="8" height="8" fill="url(#holo)"/><rect x="32" y="26" width="8" height="8" fill="url(#holo)"/><rect x="40" y="26" width="8" height="8" fill="url(#holo)"/><rect x="48" y="26" width="8" height="8" fill="url(#holo)"/><rect x="56" y="26" width="8" height="8" fill="url(#holo)"/><rect x="64" y="26" width="8" height="8" fill="url(#holo)"/><rect x="24" y="34" width="8" height="8" fill="url(#holo)"/><rect x="32" y="34" width="8" height="8" fill="#fff"/><rect x="40" y="34" width="8" height="8" fill="#fff"/><rect x="48" y="34" width="8" height="8" fill="url(#holo)"/><rect x="56" y="34" width="8" height="8" fill="url(#holo)"/><rect x="64" y="34" width="8" height="8" fill="url(#holo)"/><rect x="24" y="42" width="8" height="8" fill="url(#holo)"/><rect x="32" y="42" width="8" height="8" fill="#fff"/><rect x="40" y="42" width="8" height="8" fill="#1c2030"/><rect x="48" y="42" width="8" height="8" fill="url(#holo)"/><rect x="56" y="42" width="8" height="8" fill="url(#holo)"/><rect x="64" y="42" width="8" height="8" fill="url(#holo)"/><rect x="24" y="50" width="8" height="8" fill="url(#holo)"/><rect x="32" y="50" width="8" height="8" fill="url(#holo)"/><rect x="40" y="50" width="8" height="8" fill="url(#holo)"/><rect x="48" y="50" width="8" height="8" fill="url(#holo)"/><rect x="56" y="50" width="8" height="8" fill="url(#holo)"/><rect x="64" y="50" width="8" height="8" fill="url(#holo)"/><rect x="32" y="58" width="8" height="8" fill="url(#holo)"/><rect x="40" y="58" width="8" height="8" fill="url(#holo)"/><rect x="48" y="58" width="8" height="8" fill="url(#holo)"/><rect x="56" y="58" width="8" height="8" fill="url(#holo)"/><rect x="32" y="66" width="8" height="8" fill="#1c2030"/><rect x="56" y="66" width="8" height="8" fill="#1c2030"/></svg>
