<svg xmlns="http://www.w3.org/2000/svg" viewBox="0 0 100 100"><defs><linearGradient id="foil" x1="0" y1="0" x2="1" y2="1"><stop offset="0" stop-color="#E8D48B"/><stop offset=".5" stop-color="#C9A227"/><stop offset="1" stop-color="#F4E3A1"/></linearGradient><linearGradient id="holo" x1="0" y1="0" x2="1" y2="1"><stop offset="0" stop-color="#9BE7FF"/><stop offset=".5" stop-color="#C6A4FF"/><stop offset="1" stop-color="#FFB7E1"/></linearGradient></defs><circle cx="50" cy="50" r="44" fill="#fff"/><circle cx="50" cy="50" r="44" fill="none" stroke="#00000018" stroke-width="2"/><defs><linearGradient id="fph" x1="0" y1="0" x2="1" y2="1"><stop offset="0" stop-color="#E48FD0"/><stop offset="1" stop-color="#B554A0"/></linearGradient></defs><rect x="34" y="14" width="32" height="34" rx="6" fill="url(#fph)" stroke="#7A3068" stroke-width="2"/><rect x="39" y="20" width="22" height="20" rx="3" fill="#BFE8DC"/><rect x="34" y="50" width="32" height="36" rx="6" fill="url(#fph)" stroke="#7A3068" stroke-width="2"/><rect x="40" y="56" width="5.4" height="5.4" rx="1.6" fill="#F4D8EE"/><rect x="47.4" y="56" width="5.4" height="5.4" rx="1.6" fill="#F4D8EE"/><rect x="54.8" y="56" width="5.4" height="5.4" rx="1.6" fill="#F4D8EE"/><rect x="40" y="64" width="5.4" height="5.4" rx="1.6" fill="#F4D8EE"/><rect x="47.4" y="64" width="5.4" height="5.4" rx="1.6" fill="#F4D8EE"/><rect x="54.8" y="64" width="5.4" height="5.4" rx="1.6" fill="#F4D8EE"/><rect x="40" y="72" width="5.4" height="5.4" rx="1.6" fill="#F4D8EE"/><rect x="47.4" y="72" width="5.4" height="5.4" rx="1.6" fill="#F4D8EE"/><rect x="54.8" y="72" width="5.4" height="5.4" rx="1.6" fill="#F4D8EE"/><rect x="44" y="46" width="12" height="6" rx="3" fill="#7A3068"/><circle cx="62" cy="12" r="3" fill="#7A3068"/><rect x="60.5" y="10" width="3" height="8" fill="#7A3068"/></svg>
