<svg xmlns="http://www.w3.org/2000/svg" viewBox="0 0 100 100"><defs><linearGradient id="foil" x1="0" y1="0" x2="1" y2="1"><stop offset="0" stop-color="#E8D48B"/><stop offset=".5" stop-color="#C9A227"/><stop offset="1" stop-color="#F4E3A1"/></linearGradient><linearGradient id="holo" x1="0" y1="0" x2="1" y2="1"><stop offset="0" stop-color="#9BE7FF"/><stop offset=".5" stop-color="#C6A4FF"/><stop offset="1" stop-color="#FFB7E1"/></linearGradient></defs><circle cx="50" cy="50" r="44" fill="#fff"/><circle cx="50" cy="50" r="44" fill="none" stroke="#00000018" stroke-width="2"/><defs><linearGradient id="unmane" x1="0" y1="0" x2="1" y2="1"><stop offset="0" stop-color="#FF8FA3"/><stop offset=".5" stop-color="#B79CFF"/><stop offset="1" stop-color="#6CC8FF"/></linearGradient></defs><path d="M40 80 q-10 -14 -6 -30 q4 -18 22 -22 q16 -3 22 8 q5 8 1 16 l-6 26 q-2 8 -10 8 Z" fill="#FFF7FB" stroke="#E6C6E0" stroke-width="2"/><path d="M58 26 l6 -20 4 20 Z" fill="url(#foil)" stroke="#D9A93A" stroke-width="1.4"/><path d="M44 30 l-4 -12 10 8 Z" fill="#FFF7FB" stroke="#E6C6E0" stroke-width="1.6"/><path d="M48 22 q-18 6 -16 30 q6 -10 12 -10 q-8 10 -4 22 q6 -12 12 -12 q-4 12 2 20 q4 -14 12 -16 Z" fill="url(#unmane)"/><circle cx="64" cy="50" r="3.4" fill="#5b4a6e"/><circle cx="65.5" cy="48.5" r="1" fill="#fff"/><circle cx="74" cy="58" r="3.4" fill="#FFB7CE" opacity=".7"/><path d="M78 66 q-3 3 -7 2" stroke="#E6A6C6" stroke-width="1.6" fill="none" stroke-linecap="round"/></svg>
