<svg xmlns="http://www.w3.org/2000/svg" viewBox="0 0 100 100"><defs><linearGradient id="foil" x1="0" y1="0" x2="1" y2="1"><stop offset="0" stop-color="#E8D48B"/><stop offset=".5" stop-color="#C9A227"/><stop offset="1" stop-color="#F4E3A1"/></linearGradient><linearGradient id="holo" x1="0" y1="0" x2="1" y2="1"><stop offset="0" stop-color="#9BE7FF"/><stop offset=".5" stop-color="#C6A4FF"/><stop offset="1" stop-color="#FFB7E1"/></linearGradient></defs><circle cx="50" cy="50" r="44" fill="#fff"/><circle cx="50" cy="50" r="44" fill="none" stroke="#00000018" stroke-width="2"/><defs><linearGradient id="bfy" x1="0" y1="0" x2="1" y2="1"><stop offset="0" stop-color="#9BE7FF"/><stop offset="1" stop-color="#5FB4E8"/></linearGradient></defs><g fill="url(#bfy)" stroke="#2E6AAB" stroke-width="2"><path d="M46 50 Q20 22 28 46 Q32 58 46 54 Z"/><path d="M54 50 Q80 22 72 46 Q68 58 54 54 Z"/><path d="M46 54 Q26 80 34 64 Q38 56 46 56 Z"/><path d="M54 54 Q74 80 66 64 Q62 56 54 56 Z"/></g><rect x="46.5" y="42" width="7" height="22" rx="3.5" fill="#2E6AAB"/><path d="M48 42 q-3 -7 -7 -9 M52 42 q3 -7 7 -9" stroke="#2E6AAB" stroke-width="2" fill="none" stroke-linecap="round"/></svg>
