<svg xmlns="http://www.w3.org/2000/svg" viewBox="0 0 100 100"><defs><linearGradient id="foil" x1="0" y1="0" x2="1" y2="1"><stop offset="0" stop-color="#E8D48B"/><stop offset=".5" stop-color="#C9A227"/><stop offset="1" stop-color="#F4E3A1"/></linearGradient><linearGradient id="holo" x1="0" y1="0" x2="1" y2="1"><stop offset="0" stop-color="#9BE7FF"/><stop offset=".5" stop-color="#C6A4FF"/><stop offset="1" stop-color="#FFB7E1"/></linearGradient></defs><circle cx="50" cy="50" r="44" fill="#fff"/><circle cx="50" cy="50" r="44" fill="none" stroke="#00000018" stroke-width="2"/><g transform="rotate(-6 50 50)"><path d="M18 36 h64 a6 6 0 0 0 0 12 v8 a6 6 0 0 0 0 12 h-64 a6 6 0 0 0 0 -12 v-8 a6 6 0 0 0 0 -12 Z" fill="#F4E8C8" stroke="#B49A60" stroke-width="2"/><path d="M64 38 v28" stroke="#B49A60" stroke-width="1.6" stroke-dasharray="3 3"/><text x="42" y="50" font-family="Arial" font-weight="bold" font-size="9" text-anchor="middle" fill="#6E2424">BIG GAME</text><text x="42" y="61" font-family="Arial" font-size="7.5" text-anchor="middle" fill="#8A7A5C">SECTION W</text><text x="73" y="56" font-family="Arial" font-weight="bold" font-size="8" text-anchor="middle" fill="#6E2424" transform="rotate(90 73 53)">ADMIT 1</text></g></svg>
