<svg xmlns="http://www.w3.org/2000/svg" viewBox="0 0 100 100"><defs><linearGradient id="foil" x1="0" y1="0" x2="1" y2="1"><stop offset="0" stop-color="#E8D48B"/><stop offset=".5" stop-color="#C9A227"/><stop offset="1" stop-color="#F4E3A1"/></linearGradient><linearGradient id="holo" x1="0" y1="0" x2="1" y2="1"><stop offset="0" stop-color="#9BE7FF"/><stop offset=".5" stop-color="#C6A4FF"/><stop offset="1" stop-color="#FFB7E1"/></linearGradient></defs><circle cx="50" cy="50" r="44" fill="#fff"/><circle cx="50" cy="50" r="44" fill="none" stroke="#00000018" stroke-width="2"/><defs><radialGradient id="wsn" cx=".42" cy=".4" r=".9"><stop offset="0" stop-color="#FFE48A"/><stop offset="1" stop-color="#F2A93B"/></radialGradient></defs><circle cx="50" cy="50" r="20" fill="url(#wsn)" stroke="#C97E16" stroke-width="2"/><path d="M75.0 50.0 Q85.1 57.9 72.6 60.6" fill="none" stroke="#F2A93B" stroke-width="3.4" stroke-linecap="round"/><path d="M71.7 62.5 Q76.5 74.4 64.3 70.5" fill="none" stroke="#F2A93B" stroke-width="3.4" stroke-linecap="round"/><path d="M62.5 71.7 Q60.8 84.4 52.1 74.9" fill="none" stroke="#F2A93B" stroke-width="3.4" stroke-linecap="round"/><path d="M50.0 75.0 Q42.1 85.1 39.4 72.6" fill="none" stroke="#F2A93B" stroke-width="3.4" stroke-linecap="round"/><path d="M37.5 71.7 Q25.6 76.5 29.5 64.3" fill="none" stroke="#F2A93B" stroke-width="3.4" stroke-linecap="round"/><path d="M28.3 62.5 Q15.6 60.8 25.1 52.1" fill="none" stroke="#F2A93B" stroke-width="3.4" stroke-linecap="round"/><path d="M25.0 50.0 Q14.9 42.1 27.4 39.4" fill="none" stroke="#F2A93B" stroke-width="3.4" stroke-linecap="round"/><path d="M28.3 37.5 Q23.5 25.6 35.7 29.5" fill="none" stroke="#F2A93B" stroke-width="3.4" stroke-linecap="round"/><path d="M37.5 28.3 Q39.2 15.6 47.9 25.1" fill="none" stroke="#F2A93B" stroke-width="3.4" stroke-linecap="round"/><path d="M50.0 25.0 Q57.9 14.9 60.6 27.4" fill="none" stroke="#F2A93B" stroke-width="3.4" stroke-linecap="round"/><path d="M62.5 28.3 Q74.4 23.5 70.5 35.7" fill="none" stroke="#F2A93B" stroke-width="3.4" stroke-linecap="round"/><path d="M71.7 37.5 Q84.4 39.2 74.9 47.9" fill="none" stroke="#F2A93B" stroke-width="3.4" stroke-linecap="round"/><circle cx="44" cy="48" r="2.6" fill="#7A4E16"/><circle cx="56" cy="48" r="2.6" fill="#7A4E16"/><path d="M44 56 q6 5 12 0" stroke="#7A4E16" stroke-width="2.4" fill="none" stroke-linecap="round"/></svg>
