<svg xmlns="http://www.w3.org/2000/svg" viewBox="0 0 100 100"><defs><linearGradient id="foil" x1="0" y1="0" x2="1" y2="1"><stop offset="0" stop-color="#E8D48B"/><stop offset=".5" stop-color="#C9A227"/><stop offset="1" stop-color="#F4E3A1"/></linearGradient><linearGradient id="holo" x1="0" y1="0" x2="1" y2="1"><stop offset="0" stop-color="#9BE7FF"/><stop offset=".5" stop-color="#C6A4FF"/><stop offset="1" stop-color="#FFB7E1"/></linearGradient></defs><circle cx="50" cy="50" r="44" fill="#fff"/><circle cx="50" cy="50" r="44" fill="none" stroke="#00000018" stroke-width="2"/><rect x="23" y="26" width="7" height="7" fill="#E8485C"/><rect x="30" y="26" width="7" height="7" fill="#E8485C"/><rect x="16" y="33" width="7" height="7" fill="#E8485C"/><rect x="23" y="33" width="7" height="7" fill="#E8485C"/><rect x="30" y="33" width="7" height="7" fill="#E8485C"/><rect x="37" y="33" width="7" height="7" fill="#E8485C"/><rect x="16" y="40" width="7" height="7" fill="#E8485C"/><rect x="23" y="40" width="7" height="7" fill="#E8485C"/><rect x="30" y="40" width="7" height="7" fill="#E8485C"/><rect x="37" y="40" width="7" height="7" fill="#E8485C"/><rect x="23" y="47" width="7" height="7" fill="#8A93A6"/><rect x="30" y="47" width="7" height="7" fill="#8A93A6"/><rect x="23" y="54" width="7" height="7" fill="#8A93A6"/><rect x="30" y="54" width="7" height="7" fill="#8A93A6"/><rect x="44" y="54" width="7" height="7" fill="#FFD23B"/><rect x="65" y="54" width="7" height="7" fill="#4A90D9"/><rect x="16" y="61" width="7" height="7" fill="#23262E"/><rect x="23" y="61" width="7" height="7" fill="#23262E"/><rect x="30" y="61" width="7" height="7" fill="#23262E"/><rect x="37" y="61" width="7" height="7" fill="#23262E"/><rect x="44" y="61" width="7" height="7" fill="#23262E"/><rect x="51" y="61" width="7" height="7" fill="#23262E"/><rect x="58" y="61" width="7" height="7" fill="#23262E"/><rect x="65" y="61" width="7" height="7" fill="#23262E"/><rect x="72" y="61" width="7" height="7" fill="#23262E"/><rect x="79" y="61" width="7" height="7" fill="#23262E"/><rect x="16" y="68" width="7" height="7" fill="#23262E"/><rect x="23" y="68" width="7" height="7" fill="#23262E"/><rect x="30" y="68" width="7" height="7" fill="#23262E"/><rect x="37" y="68" width="7" height="7" fill="#23262E"/><rect x="44" y="68" width="7" height="7" fill="#23262E"/><rect x="51" y="68" width="7" height="7" fill="#23262E"/><rect x="58" y="68" width="7" height="7" fill="#23262E"/><rect x="65" y="68" width="7" height="7" fill="#23262E"/><rect x="72" y="68" width="7" height="7" fill="#23262E"/><rect x="79" y="68" width="7" height="7" fill="#23262E"/></svg>
