<svg xmlns="http://www.w3.org/2000/svg" viewBox="0 0 100 100"><defs><linearGradient id="foil" x1="0" y1="0" x2="1" y2="1"><stop offset="0" stop-color="#E8D48B"/><stop offset=".5" stop-color="#C9A227"/><stop offset="1" stop-color="#F4E3A1"/></linearGradient><linearGradient id="holo" x1="0" y1="0" x2="1" y2="1"><stop offset="0" stop-color="#9BE7FF"/><stop offset=".5" stop-color="#C6A4FF"/><stop offset="1" stop-color="#FFB7E1"/></linearGradient></defs><circle cx="50" cy="50" r="44" fill="#fff"/><circle cx="50" cy="50" r="44" fill="none" stroke="#00000018" stroke-width="2"/><rect x="70" y="18" width="8" height="8" fill="#AFC6D9"/><rect x="62" y="26" width="8" height="8" fill="#AFC6D9"/><rect x="70" y="26" width="8" height="8" fill="#AFC6D9"/><rect x="54" y="34" width="8" height="8" fill="#AFC6D9"/><rect x="62" y="34" width="8" height="8" fill="#AFC6D9"/><rect x="46" y="42" width="8" height="8" fill="#AFC6D9"/><rect x="54" y="42" width="8" height="8" fill="#AFC6D9"/><rect x="22" y="50" width="8" height="8" fill="#E8B23A"/><rect x="38" y="50" width="8" height="8" fill="#AFC6D9"/><rect x="46" y="50" width="8" height="8" fill="#AFC6D9"/><rect x="30" y="58" width="8" height="8" fill="#E8B23A"/><rect x="38" y="58" width="8" height="8" fill="#E8B23A"/><rect x="22" y="66" width="8" height="8" fill="#E8B23A"/><rect x="30" y="66" width="8" height="8" fill="#E8B23A"/><rect x="38" y="66" width="8" height="8" fill="#7A4E22"/><rect x="22" y="74" width="8" height="8" fill="#7A4E22"/><rect x="38" y="74" width="8" height="8" fill="#E8B23A"/></svg>
