<svg xmlns="http://www.w3.org/2000/svg" viewBox="0 0 100 100"><defs><linearGradient id="foil" x1="0" y1="0" x2="1" y2="1"><stop offset="0" stop-color="#E8D48B"/><stop offset=".5" stop-color="#C9A227"/><stop offset="1" stop-color="#F4E3A1"/></linearGradient><linearGradient id="holo" x1="0" y1="0" x2="1" y2="1"><stop offset="0" stop-color="#9BE7FF"/><stop offset=".5" stop-color="#C6A4FF"/><stop offset="1" stop-color="#FFB7E1"/></linearGradient></defs><circle cx="50" cy="50" r="44" fill="#fff"/><circle cx="50" cy="50" r="44" fill="none" stroke="#00000018" stroke-width="2"/><path d="M50 12 Q68 36 60 48 Q73 44 73 62 Q73 84 50 88 Q27 84 27 62 Q27 47 38 39 Q34 56 45 56 Q40 32 50 12 Z" fill="#16181F"/><clipPath id="ckf"><path d="M50 12 Q68 36 60 48 Q73 44 73 62 Q73 84 50 88 Q27 84 27 62 Q27 47 38 39 Q34 56 45 56 Q40 32 50 12 Z"/></clipPath><g clip-path="url(#ckf)"><rect x="22" y="10" width="8" height="8" fill="#F4F0E4"/><rect x="38" y="10" width="8" height="8" fill="#F4F0E4"/><rect x="54" y="10" width="8" height="8" fill="#F4F0E4"/><rect x="70" y="10" width="8" height="8" fill="#F4F0E4"/><rect x="30" y="18" width="8" height="8" fill="#F4F0E4"/><rect x="46" y="18" width="8" height="8" fill="#F4F0E4"/><rect x="62" y="18" width="8" height="8" fill="#F4F0E4"/><rect x="78" y="18" width="8" height="8" fill="#F4F0E4"/><rect x="22" y="26" width="8" height="8" fill="#F4F0E4"/><rect x="38" y="26" width="8" height="8" fill="#F4F0E4"/><rect x="54" y="26" width="8" height="8" fill="#F4F0E4"/><rect x="70" y="26" width="8" height="8" fill="#F4F0E4"/><rect x="30" y="34" width="8" height="8" fill="#F4F0E4"/><rect x="46" y="34" width="8" height="8" fill="#F4F0E4"/><rect x="62" y="34" width="8" height="8" fill="#F4F0E4"/><rect x="78" y="34" width="8" height="8" fill="#F4F0E4"/><rect x="22" y="42" width="8" height="8" fill="#F4F0E4"/><rect x="38" y="42" width="8" height="8" fill="#F4F0E4"/><rect x="54" y="42" width="8" height="8" fill="#F4F0E4"/><rect x="70" y="42" width="8" height="8" fill="#F4F0E4"/><rect x="30" y="50" width="8" height="8" fill="#F4F0E4"/><rect x="46" y="50" width="8" height="8" fill="#F4F0E4"/><rect x="62" y="50" width="8" height="8" fill="#F4F0E4"/><rect x="78" y="50" width="8" height="8" fill="#F4F0E4"/><rect x="22" y="58" width="8" height="8" fill="#F4F0E4"/><rect x="38" y="58" width="8" height="8" fill="#F4F0E4"/><rect x="54" y="58" width="8" height="8" fill="#F4F0E4"/><rect x="70" y="58" width="8" height="8" fill="#F4F0E4"/><rect x="30" y="66" width="8" height="8" fill="#F4F0E4"/><rect x="46" y="66" width="8" height="8" fill="#F4F0E4"/><rect x="62" y="66" width="8" height="8" fill="#F4F0E4"/><rect x="78" y="66" width="8" height="8" fill="#F4F0E4"/><rect x="22" y="74" width="8" height="8" fill="#F4F0E4"/><rect x="38" y="74" width="8" height="8" fill="#F4F0E4"/><rect x="54" y="74" width="8" height="8" fill="#F4F0E4"/><rect x="70" y="74" width="8" height="8" fill="#F4F0E4"/><rect x="30" y="82" width="8" height="8" fill="#F4F0E4"/><rect x="46" y="82" width="8" height="8" fill="#F4F0E4"/><rect x="62" y="82" width="8" height="8" fill="#F4F0E4"/><rect x="78" y="82" width="8" height="8" fill="#F4F0E4"/></g></svg>
