<svg xmlns="http://www.w3.org/2000/svg" viewBox="0 0 100 100"><defs><linearGradient id="foil" x1="0" y1="0" x2="1" y2="1"><stop offset="0" stop-color="#E8D48B"/><stop offset=".5" stop-color="#C9A227"/><stop offset="1" stop-color="#F4E3A1"/></linearGradient><linearGradient id="holo" x1="0" y1="0" x2="1" y2="1"><stop offset="0" stop-color="#9BE7FF"/><stop offset=".5" stop-color="#C6A4FF"/><stop offset="1" stop-color="#FFB7E1"/></linearGradient></defs><circle cx="50" cy="50" r="44" fill="#fff"/><circle cx="50" cy="50" r="44" fill="none" stroke="#00000018" stroke-width="2"/><defs><linearGradient id="chw" x1="0" y1="0" x2="0" y2="1"><stop offset="0" stop-color="#9A6633"/><stop offset="1" stop-color="#6E4520"/></linearGradient></defs><path d="M22 44 q28 -22 56 0 l0 8 -56 0 Z" fill="url(#chw)" stroke="#4A2D12" stroke-width="2.5"/><rect x="22" y="52" width="56" height="28" rx="4" fill="url(#chw)" stroke="#4A2D12" stroke-width="2.5"/><path d="M26 47 q24 -17 48 0" stroke="#4A2D12" stroke-width="1.6" fill="none"/><path d="M24 50 h52 M24 66 h52" stroke="#E8B23A" stroke-width="3.4"/><rect x="44" y="46" width="12" height="16" rx="2.5" fill="#E8B23A" stroke="#8a6310" stroke-width="1.6"/><circle cx="50" cy="53" r="2.4" fill="#6E4520"/><circle cx="33" cy="42" r="2.6" fill="#FFD23B"/><circle cx="62" cy="39" r="2.2" fill="#FFD23B"/><circle cx="48" cy="36" r="1.8" fill="#FFE48A"/></svg>
