<svg xmlns="http://www.w3.org/2000/svg" viewBox="0 0 100 100"><defs><linearGradient id="foil" x1="0" y1="0" x2="1" y2="1"><stop offset="0" stop-color="#E8D48B"/><stop offset=".5" stop-color="#C9A227"/><stop offset="1" stop-color="#F4E3A1"/></linearGradient><linearGradient id="holo" x1="0" y1="0" x2="1" y2="1"><stop offset="0" stop-color="#9BE7FF"/><stop offset=".5" stop-color="#C6A4FF"/><stop offset="1" stop-color="#FFB7E1"/></linearGradient></defs><circle cx="50" cy="50" r="44" fill="#fff"/><circle cx="50" cy="50" r="44" fill="none" stroke="#00000018" stroke-width="2"/><defs><linearGradient id="spmane" x1="0" y1="0" x2="1" y2="1"><stop offset="0" stop-color="#FF8FA3"/><stop offset=".4" stop-color="#FFE66D"/><stop offset=".7" stop-color="#8FE39A"/><stop offset="1" stop-color="#6CC8FF"/></linearGradient></defs><path d="M40 82 q-10 -14 -6 -30 q4 -18 22 -22 q16 -3 22 8 q5 8 1 16 l-6 26 q-2 8 -10 8 Z" fill="url(#holo)" stroke="#C6A4FF" stroke-width="2"/><path d="M58 26 l6 -20 4 20 Z" fill="url(#foil)" stroke="#D9A93A" stroke-width="1.4"/><path d="M44 30 l-4 -12 10 8 Z" fill="url(#holo)" stroke="#C6A4FF" stroke-width="1.4"/><path d="M48 22 q-18 6 -16 32 q6 -11 12 -11 q-8 11 -4 24 q6 -13 12 -13 q-4 13 2 21 q4 -15 12 -17 Z" fill="url(#spmane)"/><circle cx="64" cy="50" r="3.6" fill="#4a3a5e"/><circle cx="65.6" cy="48.4" r="1.1" fill="#fff"/><circle cx="74" cy="58" r="3.4" fill="#FFB7CE" opacity=".7"/><path d="M78 66 q-3 3 -7 2" stroke="#B98ACE" stroke-width="1.6" fill="none" stroke-linecap="round"/><path d="M82 24 l1.6 5 5 1.6 -5 1.6 -1.6 5 -1.6 -5 -5 -1.6 5 -1.6 Z" fill="#fff"/><path d="M24 40 l1.2 3.8 3.8 1.2 -3.8 1.2 -1.2 3.8 -1.2 -3.8 -3.8 -1.2 3.8 -1.2 Z" fill="#FFE66D"/><circle cx="30" cy="74" r="2" fill="#fff"/></svg>
