<svg xmlns="http://www.w3.org/2000/svg" viewBox="0 0 100 100"><defs><linearGradient id="foil" x1="0" y1="0" x2="1" y2="1"><stop offset="0" stop-color="#E8D48B"/><stop offset=".5" stop-color="#C9A227"/><stop offset="1" stop-color="#F4E3A1"/></linearGradient><linearGradient id="holo" x1="0" y1="0" x2="1" y2="1"><stop offset="0" stop-color="#9BE7FF"/><stop offset=".5" stop-color="#C6A4FF"/><stop offset="1" stop-color="#FFB7E1"/></linearGradient></defs><circle cx="50" cy="50" r="44" fill="#fff"/><circle cx="50" cy="50" r="44" fill="none" stroke="#00000018" stroke-width="2"/><defs><linearGradient id="unh" x1="0" y1="0" x2="1" y2="1"><stop offset="0" stop-color="#FFB7D5"/><stop offset="1" stop-color="#FF6F9C"/></linearGradient></defs><path d="M50 80 C18 56 22 30 40 30 q10 0 10 12 q0 -12 10 -12 c18 0 22 26 -10 50 Z" fill="url(#unh)" stroke="#E84D7F" stroke-width="2"/><path d="M36 44 q4 -8 11 -6" stroke="#fff" stroke-width="3" fill="none" stroke-linecap="round" opacity=".8"/><path d="M70 30 l1.6 5 5 1.6 -5 1.6 -1.6 5 -1.6 -5 -5 -1.6 5 -1.6 Z" fill="#FFF6B0"/></svg>
