<svg xmlns="http://www.w3.org/2000/svg" viewBox="0 0 100 100"><defs><linearGradient id="foil" x1="0" y1="0" x2="1" y2="1"><stop offset="0" stop-color="#E8D48B"/><stop offset=".5" stop-color="#C9A227"/><stop offset="1" stop-color="#F4E3A1"/></linearGradient><linearGradient id="holo" x1="0" y1="0" x2="1" y2="1"><stop offset="0" stop-color="#9BE7FF"/><stop offset=".5" stop-color="#C6A4FF"/><stop offset="1" stop-color="#FFB7E1"/></linearGradient></defs><circle cx="50" cy="50" r="44" fill="#fff"/><circle cx="50" cy="50" r="44" fill="none" stroke="#00000018" stroke-width="2"/><rect x="42" y="20" width="8" height="8" fill="url(#foil)"/><rect x="50" y="20" width="8" height="8" fill="url(#foil)"/><rect x="34" y="28" width="8" height="8" fill="url(#foil)"/><rect x="42" y="28" width="8" height="8" fill="url(#foil)"/><rect x="50" y="28" width="8" height="8" fill="url(#foil)"/><rect x="58" y="28" width="8" height="8" fill="url(#foil)"/><rect x="26" y="36" width="8" height="8" fill="url(#foil)"/><rect x="34" y="36" width="8" height="8" fill="url(#foil)"/><rect x="42" y="36" width="8" height="8" fill="url(#foil)"/><rect x="50" y="36" width="8" height="8" fill="url(#foil)"/><rect x="58" y="36" width="8" height="8" fill="url(#foil)"/><rect x="66" y="36" width="8" height="8" fill="url(#foil)"/><rect x="18" y="44" width="8" height="8" fill="url(#foil)"/><rect x="26" y="44" width="8" height="8" fill="url(#foil)"/><rect x="34" y="44" width="8" height="8" fill="url(#foil)"/><rect x="42" y="44" width="8" height="8" fill="url(#foil)"/><rect x="50" y="44" width="8" height="8" fill="url(#foil)"/><rect x="58" y="44" width="8" height="8" fill="url(#foil)"/><rect x="66" y="44" width="8" height="8" fill="url(#foil)"/><rect x="74" y="44" width="8" height="8" fill="url(#foil)"/><rect x="34" y="52" width="8" height="8" fill="url(#foil)"/><rect x="42" y="52" width="8" height="8" fill="url(#foil)"/><rect x="50" y="52" width="8" height="8" fill="url(#foil)"/><rect x="58" y="52" width="8" height="8" fill="url(#foil)"/><rect x="34" y="60" width="8" height="8" fill="url(#foil)"/><rect x="42" y="60" width="8" height="8" fill="url(#foil)"/><rect x="50" y="60" width="8" height="8" fill="url(#foil)"/><rect x="58" y="60" width="8" height="8" fill="url(#foil)"/><rect x="34" y="68" width="8" height="8" fill="url(#foil)"/><rect x="42" y="68" width="8" height="8" fill="url(#foil)"/><rect x="50" y="68" width="8" height="8" fill="url(#foil)"/><rect x="58" y="68" width="8" height="8" fill="url(#foil)"/></svg>
