<svg xmlns="http://www.w3.org/2000/svg" viewBox="0 0 100 100"><defs><linearGradient id="foil" x1="0" y1="0" x2="1" y2="1"><stop offset="0" stop-color="#E8D48B"/><stop offset=".5" stop-color="#C9A227"/><stop offset="1" stop-color="#F4E3A1"/></linearGradient><linearGradient id="holo" x1="0" y1="0" x2="1" y2="1"><stop offset="0" stop-color="#9BE7FF"/><stop offset=".5" stop-color="#C6A4FF"/><stop offset="1" stop-color="#FFB7E1"/></linearGradient></defs><circle cx="50" cy="50" r="44" fill="#fff"/><circle cx="50" cy="50" r="44" fill="none" stroke="#00000018" stroke-width="2"/><rect x="15" y="38" width="7" height="7" fill="#23262E"/><rect x="22" y="38" width="7" height="7" fill="#23262E"/><rect x="29" y="38" width="7" height="7" fill="#23262E"/><rect x="36" y="38" width="7" height="7" fill="#23262E"/><rect x="43" y="38" width="7" height="7" fill="#23262E"/><rect x="50" y="38" width="7" height="7" fill="#23262E"/><rect x="57" y="38" width="7" height="7" fill="#23262E"/><rect x="64" y="38" width="7" height="7" fill="#23262E"/><rect x="71" y="38" width="7" height="7" fill="#23262E"/><rect x="78" y="38" width="7" height="7" fill="#23262E"/><rect x="15" y="45" width="7" height="7" fill="#23262E"/><rect x="22" y="45" width="7" height="7" fill="#3BD27A"/><rect x="29" y="45" width="7" height="7" fill="#3BD27A"/><rect x="36" y="45" width="7" height="7" fill="#3BD27A"/><rect x="43" y="45" width="7" height="7" fill="#3BD27A"/><rect x="50" y="45" width="7" height="7" fill="#3BD27A"/><rect x="57" y="45" width="7" height="7" fill="#3BD27A"/><rect x="64" y="45" width="7" height="7" fill="#3BD27A"/><rect x="71" y="45" width="7" height="7" fill="#3BD27A"/><rect x="78" y="45" width="7" height="7" fill="#23262E"/><rect x="15" y="52" width="7" height="7" fill="#23262E"/><rect x="22" y="52" width="7" height="7" fill="#3BD27A"/><rect x="29" y="52" width="7" height="7" fill="#3BD27A"/><rect x="36" y="52" width="7" height="7" fill="#3BD27A"/><rect x="43" y="52" width="7" height="7" fill="#3BD27A"/><rect x="50" y="52" width="7" height="7" fill="#3BD27A"/><rect x="57" y="52" width="7" height="7" fill="#3BD27A"/><rect x="64" y="52" width="7" height="7" fill="#3BD27A"/><rect x="71" y="52" width="7" height="7" fill="#3BD27A"/><rect x="78" y="52" width="7" height="7" fill="#23262E"/><rect x="15" y="59" width="7" height="7" fill="#23262E"/><rect x="22" y="59" width="7" height="7" fill="#23262E"/><rect x="29" y="59" width="7" height="7" fill="#23262E"/><rect x="36" y="59" width="7" height="7" fill="#23262E"/><rect x="43" y="59" width="7" height="7" fill="#23262E"/><rect x="50" y="59" width="7" height="7" fill="#23262E"/><rect x="57" y="59" width="7" height="7" fill="#23262E"/><rect x="64" y="59" width="7" height="7" fill="#23262E"/><rect x="71" y="59" width="7" height="7" fill="#23262E"/><rect x="78" y="59" width="7" height="7" fill="#23262E"/></svg>
