<svg xmlns="http://www.w3.org/2000/svg" viewBox="0 0 100 100"><defs><linearGradient id="foil" x1="0" y1="0" x2="1" y2="1"><stop offset="0" stop-color="#E8D48B"/><stop offset=".5" stop-color="#C9A227"/><stop offset="1" stop-color="#F4E3A1"/></linearGradient><linearGradient id="holo" x1="0" y1="0" x2="1" y2="1"><stop offset="0" stop-color="#9BE7FF"/><stop offset=".5" stop-color="#C6A4FF"/><stop offset="1" stop-color="#FFB7E1"/></linearGradient></defs><circle cx="50" cy="50" r="44" fill="#fff"/><circle cx="50" cy="50" r="44" fill="none" stroke="#00000018" stroke-width="2"/><circle cx="50" cy="46" r="26" fill="url(#holo)" stroke="#fff" stroke-width="2"/><circle cx="50" cy="46" r="8" fill="#fff"/><circle cx="50" cy="46" r="3.4" fill="#1c2030"/><path d="M30 36 a26 26 0 0 1 10 -9 M66 64 a26 26 0 0 0 8 -10" stroke="#fff" stroke-width="2.4" opacity=".7" fill="none"/><circle cx="42" cy="40" r="2.6" fill="#1c2030"/><circle cx="58" cy="40" r="2.6" fill="#1c2030"/><path d="M40 74 l-2 12 M60 74 l2 12" stroke="#1c2030" stroke-width="3.4" stroke-linecap="round"/><rect x="32" y="84" width="11" height="5" rx="2.5" fill="#E48FD0"/><rect x="57" y="84" width="11" height="5" rx="2.5" fill="#9BE7FF"/></svg>
