<svg xmlns="http://www.w3.org/2000/svg" viewBox="0 0 100 100"><defs><linearGradient id="foil" x1="0" y1="0" x2="1" y2="1"><stop offset="0" stop-color="#E8D48B"/><stop offset=".5" stop-color="#C9A227"/><stop offset="1" stop-color="#F4E3A1"/></linearGradient><linearGradient id="holo" x1="0" y1="0" x2="1" y2="1"><stop offset="0" stop-color="#9BE7FF"/><stop offset=".5" stop-color="#C6A4FF"/><stop offset="1" stop-color="#FFB7E1"/></linearGradient></defs><circle cx="50" cy="50" r="44" fill="#fff"/><circle cx="50" cy="50" r="44" fill="none" stroke="#00000018" stroke-width="2"/><defs><radialGradient id="glo" cx=".4" cy=".3" r="1"><stop offset="0" stop-color="#D8C2FF"/><stop offset=".55" stop-color="#A47CF0"/><stop offset="1" stop-color="#7C4FD0"/></radialGradient></defs><path d="M24 66 q0 -34 26 -34 q26 0 26 34 q0 12 -26 12 q-26 0 -26 -12 Z" fill="url(#glo)" stroke="#4A2F96" stroke-width="2.2"/><ellipse cx="38" cy="44" rx="6" ry="9" fill="#fff" opacity=".5"/><circle cx="42" cy="56" r="3.4" fill="#2E1D63"/><circle cx="58" cy="56" r="3.4" fill="#2E1D63"/><path d="M44 66 q6 5 12 0" stroke="#2E1D63" stroke-width="2.4" fill="none" stroke-linecap="round"/><path d="M74 38 l8 -14 M82 24 l3.5 6 M82 24 l-6.5 -2" stroke="#AFC6D9" stroke-width="3.6" stroke-linecap="round"/><rect x="70" y="36" width="9" height="5" rx="2.5" fill="#8A6B4D" transform="rotate(-60 74 38)"/></svg>
