<svg xmlns="http://www.w3.org/2000/svg" viewBox="0 0 100 100"><defs><linearGradient id="foil" x1="0" y1="0" x2="1" y2="1"><stop offset="0" stop-color="#E8D48B"/><stop offset=".5" stop-color="#C9A227"/><stop offset="1" stop-color="#F4E3A1"/></linearGradient><linearGradient id="holo" x1="0" y1="0" x2="1" y2="1"><stop offset="0" stop-color="#9BE7FF"/><stop offset=".5" stop-color="#C6A4FF"/><stop offset="1" stop-color="#FFB7E1"/></linearGradient></defs><circle cx="50" cy="50" r="44" fill="#fff"/><circle cx="50" cy="50" r="44" fill="none" stroke="#00000018" stroke-width="2"/><defs><linearGradient id="spk" x1="0" y1="0" x2="1" y2="1"><stop offset="0" stop-color="#fff"/><stop offset="1" stop-color="#C8D4E4"/></linearGradient></defs><path d="M50 18 L56 44 L82 50 L56 56 L50 82 L44 56 L18 50 L44 44 Z" fill="url(#spk)" stroke="#8FA4C4" stroke-width="1.6"/><path d="M74 22 L77 32 L87 35 L77 38 L74 48 L71 38 L61 35 L71 32 Z" fill="url(#spk)" stroke="#8FA4C4" stroke-width="1.2"/><path d="M28 64 L30.4 72 L38 74.4 L30.4 77 L28 85 L25.6 77 L18 74.4 L25.6 72 Z" fill="url(#spk)" stroke="#8FA4C4" stroke-width="1.2"/></svg>
