<svg xmlns="http://www.w3.org/2000/svg" viewBox="0 0 100 100"><defs><linearGradient id="foil" x1="0" y1="0" x2="1" y2="1"><stop offset="0" stop-color="#E8D48B"/><stop offset=".5" stop-color="#C9A227"/><stop offset="1" stop-color="#F4E3A1"/></linearGradient><linearGradient id="holo" x1="0" y1="0" x2="1" y2="1"><stop offset="0" stop-color="#9BE7FF"/><stop offset=".5" stop-color="#C6A4FF"/><stop offset="1" stop-color="#FFB7E1"/></linearGradient></defs><circle cx="50" cy="50" r="44" fill="#fff"/><circle cx="50" cy="50" r="44" fill="none" stroke="#00000018" stroke-width="2"/><rect x="30" y="28" width="8" height="8" fill="#E8485C"/><rect x="38" y="28" width="8" height="8" fill="#E8485C"/><rect x="54" y="28" width="8" height="8" fill="#E8485C"/><rect x="62" y="28" width="8" height="8" fill="#E8485C"/><rect x="22" y="36" width="8" height="8" fill="#E8485C"/><rect x="30" y="36" width="8" height="8" fill="#E8485C"/><rect x="38" y="36" width="8" height="8" fill="#E8485C"/><rect x="46" y="36" width="8" height="8" fill="#E8485C"/><rect x="54" y="36" width="8" height="8" fill="#E8485C"/><rect x="62" y="36" width="8" height="8" fill="#E8485C"/><rect x="70" y="36" width="8" height="8" fill="#E8485C"/><rect x="22" y="44" width="8" height="8" fill="#E8485C"/><rect x="30" y="44" width="8" height="8" fill="#E8485C"/><rect x="38" y="44" width="8" height="8" fill="#E8485C"/><rect x="46" y="44" width="8" height="8" fill="#E8485C"/><rect x="54" y="44" width="8" height="8" fill="#E8485C"/><rect x="62" y="44" width="8" height="8" fill="#E8485C"/><rect x="70" y="44" width="8" height="8" fill="#E8485C"/><rect x="30" y="52" width="8" height="8" fill="#E8485C"/><rect x="38" y="52" width="8" height="8" fill="#E8485C"/><rect x="46" y="52" width="8" height="8" fill="#E8485C"/><rect x="54" y="52" width="8" height="8" fill="#E8485C"/><rect x="62" y="52" width="8" height="8" fill="#E8485C"/><rect x="38" y="60" width="8" height="8" fill="#E8485C"/><rect x="46" y="60" width="8" height="8" fill="#E8485C"/><rect x="54" y="60" width="8" height="8" fill="#E8485C"/><rect x="46" y="68" width="8" height="8" fill="#E8485C"/></svg>
