<svg xmlns="http://www.w3.org/2000/svg" viewBox="0 0 100 100"><defs><linearGradient id="foil" x1="0" y1="0" x2="1" y2="1"><stop offset="0" stop-color="#E8D48B"/><stop offset=".5" stop-color="#C9A227"/><stop offset="1" stop-color="#F4E3A1"/></linearGradient><linearGradient id="holo" x1="0" y1="0" x2="1" y2="1"><stop offset="0" stop-color="#9BE7FF"/><stop offset=".5" stop-color="#C6A4FF"/><stop offset="1" stop-color="#FFB7E1"/></linearGradient></defs><circle cx="50" cy="50" r="44" fill="#fff"/><circle cx="50" cy="50" r="44" fill="none" stroke="#00000018" stroke-width="2"/><defs><radialGradient id="potg" cx=".4" cy=".35" r=".9"><stop offset="0" stop-color="#FF8FC2"/><stop offset="1" stop-color="#D6347F"/></radialGradient></defs><rect x="44" y="16" width="12" height="14" fill="#B8C4D4" rx="2"/><rect x="41" y="13" width="18" height="6" rx="3" fill="#8A6B4D"/><path d="M44 30 q-18 12 -18 30 a24 24 0 0 0 48 0 q0 -18 -18 -30 Z" fill="#DCEAF5" opacity=".5" stroke="#9FB4C8" stroke-width="2.5"/><path d="M30 54 q3 -8 10 -13 q-14 9 -10 13 Z M28 60 a22 22 0 0 0 44 0 q0 -8 -5 -14 q-16 10 -34 2 q-5 6 -5 12 Z" fill="url(#potg)"/><circle cx="58" cy="64" r="3.4" fill="#FFC2DE"/><circle cx="46" cy="72" r="2.4" fill="#FFC2DE"/><ellipse cx="40" cy="42" rx="4" ry="7" fill="#fff" opacity=".55" transform="rotate(18 40 42)"/></svg>
